<svg width="249" height="154" viewBox="0 0 249 154" fill="none" xmlns="http://www.w3.org/2000/svg">
<path fill-rule="evenodd" clip-rule="evenodd" d="M183.501 124.234C182.323 125.596 180.583 126.608 179.247 127.854C177.845 129.163 176.323 130.307 174.927 131.6C168.766 124.07 160.326 119.453 153.014 113.204C149.548 110.242 146.995 106.223 145.126 102.099C144.168 99.9853 143.46 97.8093 142.906 95.5572C142.656 94.5428 142.412 93.5318 142.249 92.5035C142.052 91.2582 142.001 91.152 141.161 90.1801C140.799 89.7619 140.099 88.5398 139.39 88.6745C138.794 88.7879 137.704 90.6026 137.327 91.0508C135.515 93.2067 133.759 95.428 131.851 97.5004C128.933 100.671 126.276 103.792 123.567 107.153C118.024 114.029 112.045 120.502 106.012 126.972C105.564 127.452 104.521 128.859 103.878 129.048C103.096 129.278 101.826 128.319 101.039 127.783C99.1387 126.49 97.6411 124.889 96.0166 123.285C92.8469 120.157 90.7004 115.765 89.2565 111.586C88.3922 109.085 87.8302 106.492 86.9381 103.999C86.5663 102.96 85.7236 101.683 86.1515 100.778C86.2788 100.509 87.0897 99.792 87.3757 99.7372C87.7138 99.6722 88.2776 100.136 88.395 100.104C89.5169 99.7967 88.8944 98.6223 89.5618 97.9904C89.9401 97.6319 91.8643 97.6844 92.4388 97.4874C94.5394 96.7668 96.4239 95.3923 98.4097 94.5717C106.723 91.1372 115.138 87.7962 122.314 82.1875C124.176 80.7332 125.412 79.6403 127.633 78.7002C129.877 77.7503 132.134 76.9028 134.424 76.0739C136.444 75.3426 138.475 74.657 140.563 74.1328C142.82 73.5658 146.021 72.847 148.276 73.5773C152.705 75.011 154.135 78.6598 155.898 82.5089C158.284 87.7167 161.169 92.6447 164.296 97.4381C170.313 106.661 177.63 114.936 183.501 124.234Z" fill="url(#paint0_linear_45_1189)"/>
<path fill-rule="evenodd" clip-rule="evenodd" d="M50.136 42.7008C49.8923 42.5772 47.9897 43.3515 47.6704 43.47C46.3948 43.9433 45.1933 44.7296 43.9916 45.3694C44.9126 46.4902 45.8338 47.6114 46.7546 48.7325C47.6573 46.5182 48.8176 44.691 50.136 42.7008ZM50.764 56.478C50.4506 56.5133 53.0962 62.8708 53.4051 63.5846C54.5294 66.1809 55.7097 68.7519 56.8488 71.3417C57.9525 73.8513 59.3525 76.1601 60.763 78.5046C61.9694 80.5097 63.2103 83.6213 65.0301 85.1064C63.8811 80.0088 64.0324 74.1475 60.7366 69.8673C57.3203 65.43 53.9426 61.0971 50.764 56.478ZM183.502 124.46C178.396 116.376 172.006 109.224 166.682 101.284C163.701 96.8383 160.8 92.3356 158.291 87.6033C156.466 84.1608 155.331 79.2493 152.513 76.6175C151.27 75.458 149.943 74.3231 148.276 73.8036C145.995 73.0929 142.854 73.7973 140.563 74.3593C136.292 75.4063 132.121 77.0323 128.076 78.74C123.973 80.4719 120.473 83.5829 116.766 86.0824C112.789 88.764 108.485 90.7174 104.03 92.4274C100.151 93.9164 96.6996 96.054 92.841 97.5527C92.0721 97.8514 90.503 97.8076 89.858 98.1971C89.163 98.6164 89.4367 99.8547 88.5929 100.312C88.2122 100.518 88.0854 99.7704 87.7932 99.7827C87.4358 99.7975 87.1099 100.217 86.7655 100.483C85.3631 101.565 86.2223 102.286 86.7775 103.775C88.5874 108.626 89.5601 113.561 92.1013 118.14C94.1907 121.904 97.1809 125.277 100.702 127.769C101.237 128.149 102.983 129.618 103.612 129.52C104.177 129.433 105.329 127.928 105.72 127.52C107.493 125.666 109.113 123.671 110.885 121.814C113.623 118.945 116.258 115.998 118.916 113.089C122 109.712 124.73 105.886 127.508 102.278C128.786 100.618 130.431 99.2661 131.851 97.727C133.761 95.6575 135.515 93.4327 137.327 91.2774C137.875 90.6251 138.794 88.9566 139.645 88.9762C140.242 88.99 141.295 90.3955 141.607 90.8359C142.768 92.4731 142.762 95.4297 143.34 97.4734C144.748 102.457 147.287 107.324 150.77 111.169C154.234 114.994 158.67 117.713 162.766 120.787C167.204 124.117 171.408 127.525 174.927 131.827C176.324 130.533 177.845 129.389 179.247 128.081C180.583 126.834 182.323 125.823 183.502 124.46ZM117.787 147.331C118.78 147.341 120.46 147.952 121.348 147.584C118.715 144.67 116.296 142.17 112.964 140.034C109.506 137.818 106.06 135.622 102.701 133.258C95.9333 128.494 90.9552 122.845 88.128 114.912C87.4 112.869 86.9124 110.726 86.3789 108.626C86.0919 107.495 85.5205 102.204 84.5501 101.747C83.9754 101.476 79.6495 104.517 78.9641 104.896C77.3616 105.782 75.7531 106.469 74.0964 107.163C70.5352 108.654 66.864 109.791 63.0876 110.741C58.5601 111.879 55.4762 109.995 52.6714 106.437C49.4894 102.4 46.8451 97.8444 43.9357 93.6046C42.6127 91.6763 41.5166 89.751 40.5395 87.6241C39.9 86.2324 37.3638 82.4777 38.2401 80.995C40.7404 82.8986 41.64 86.6836 43.3432 89.2324C45.466 92.4089 47.8582 95.4039 49.9919 98.5775C51.7862 101.246 53.6167 104.48 56.2675 106.398C58.5993 108.086 60.8144 107.567 63.3238 106.809C66.3652 105.89 69.5177 105.437 72.4983 104.297C75.7239 103.064 78.7757 101.314 81.9228 99.8873C83.3899 99.222 85.1466 98.8439 86.5291 98.0145C87.7207 97.3001 87.543 96.9229 87.6304 95.4015C87.7327 93.6266 87.8504 91.8503 87.9289 90.0738C87.9816 88.8801 87.3361 87.2617 87.7742 86.3707C84.2013 86.9901 80.7093 87.8198 77.1615 88.5537C75.2191 88.9555 73.346 89.4523 71.3837 89.768C70.6357 89.8883 69.6132 89.8849 68.9435 90.2108C68.4091 90.0574 68.1367 90.1549 68.1263 90.5032C68.1007 90.6924 68.0603 90.8789 68.0047 91.0624C66.9092 91.5607 66.272 90.4918 65.3218 89.4664C64.1493 88.201 63.2713 86.7759 62.4111 85.289C60.4877 81.9645 58.2708 78.8378 56.4909 75.4197C54.6768 71.9352 53.2034 68.2045 51.6654 64.5894C50.2544 61.2727 49.3509 57.6858 47.7917 54.4477C47.0959 53.0022 46.214 51.807 45.1842 50.586C44.3344 49.5784 43.027 47.4047 41.758 46.9419C41.4224 46.8195 40.5437 47.0251 40.1625 46.998C39.4027 46.9437 38.7257 46.6648 37.9482 46.7258C36.2648 46.8576 34.4296 47.9221 33.0844 48.858C33.9537 49.6329 36.1284 50.5748 34.5663 51.9706C33.0504 53.3258 32.2132 50.8949 31.6348 49.8299C28.9109 52.0666 29.3046 55.1508 28.9899 58.3112C28.8256 59.9612 28.3932 61.5861 28.1143 63.2113C27.9134 64.3809 28.0543 65.5908 27.9969 66.7849C27.8506 69.8195 27.5456 72.7242 27.5604 75.7163C27.5761 78.9145 27.7939 82.0031 28.0499 85.1781C28.4806 90.5236 29.4677 95.8709 30.314 101.174C30.7902 104.155 31.4419 107.051 32.0746 109.983C32.7927 113.312 34.1209 116.464 34.8658 119.784C35.6248 118.819 36.1957 118.815 37.4232 118.942C38.3675 119.041 39.0017 118.816 38.9464 120.127C38.9107 120.977 38.1608 121.626 37.3311 121.774C36.2492 121.968 35.8815 121.428 35.324 120.608C35.1935 122.16 36.2372 123.783 36.6499 125.298C37.0405 126.735 37.2993 128.143 37.9558 129.517C38.5963 130.858 39.1447 132.181 39.7928 133.509C40.0913 134.12 40.3704 134.741 40.6723 135.351C40.825 135.659 41.0047 136.085 41.2325 136.345C41.7668 136.954 41.6818 136.659 42.3072 137.006C43.6696 137.763 43.158 137.575 43.1898 139.137C43.2209 140.679 44.0114 141.812 45.2792 142.678C47.9689 144.517 50.6218 145.028 53.6796 145.958C56.5287 146.823 59.5297 147.566 62.5465 147.549C66.2415 147.528 69.8874 147.044 73.5824 146.995C77.6588 146.941 81.7744 146.963 85.8424 147.104C87.5182 147.162 89.0745 147.237 90.6924 147.664C92.5712 148.162 94.3887 147.964 96.3251 147.889C100.456 147.728 104.73 147.409 108.807 147.38C111.743 147.359 114.84 147.154 117.787 147.331ZM224.913 148.933C225.647 149.321 227.293 149.161 228.032 149.054C229.332 148.864 229.472 148.348 230.297 147.189C231.717 145.192 232.87 143.279 233.706 140.965C235.306 136.537 235.959 132.008 236.661 127.376C237.441 122.229 236.016 116.894 235.506 111.783C235.389 110.61 235.229 109.448 235.044 108.284C234.933 107.588 234.904 105.221 234.446 104.618C233.566 103.461 229.475 104.394 227.867 104.499C223.377 104.793 218.858 104.861 214.37 104.912C211.977 104.939 209.571 105.039 207.202 105.058C206.114 105.067 205.05 105.013 203.959 104.907C203.593 104.871 203.237 104.787 202.869 104.767C201.609 104.697 201.704 104.515 201.378 105.63C200.808 107.584 201.247 110.071 201.097 112.099C200.897 114.809 200.788 117.558 200.838 120.274C200.884 122.784 200.798 125.288 200.892 127.803C200.931 128.845 201.045 129.694 201.319 130.689C201.63 131.814 201.972 134.442 202.746 135.22C202.834 135.309 203.492 135.102 203.666 135.323C203.935 135.663 203.886 136.382 204.07 136.602C204.668 137.313 205.904 137.37 206.8 137.689C209.259 138.566 211.515 139.518 213.832 140.701C215.903 141.757 219.242 142.656 220.487 144.74C221.058 145.696 221.135 146.956 221.66 147.941C222.258 149.064 221.062 148.477 222.526 148.933C223.186 149.138 224.237 148.933 224.913 148.933ZM6.59705 136.232C6.41076 138.825 4.94994 141.295 4.44143 143.845C4.20348 145.039 3.79986 146.212 3.52017 147.399C3.25195 148.538 2.28294 149.886 2.38104 151.013C5.95756 149.739 9.58026 149.418 13.3183 149.075C16.8611 148.749 20.6039 148.619 24.117 148.617C27.6969 148.616 31.5247 148.266 35.2107 148.212C39.0657 148.155 42.9787 148.055 46.7778 147.656C44.7913 146.184 42.3056 144.803 40.8388 142.755C39.2441 140.53 38.416 137.742 37.0128 135.394C34.1971 130.682 32.407 124.834 30.9311 119.54C27.9513 108.853 24.6213 98.3631 23.8188 87.2776C22.2914 88.0598 21.079 91.0945 20.3142 92.6056C19.3382 94.535 18.8271 96.6265 18.1925 98.6772C16.8859 102.901 15.9816 107.281 14.3817 111.464C11.3239 119.462 9.35849 128.079 6.59705 136.232ZM200.741 73.944C201.403 78.7238 202.79 83.5655 202.843 88.4029C202.855 89.4672 202.674 90.6491 202.896 91.6985C203.133 92.8188 203.903 93.8092 204.348 94.874C205.054 96.5641 206.842 100.028 205.118 101.461C205.083 100.102 203.839 98.3756 203.213 97.1872C202.269 95.3966 201.028 93.7594 200.004 92.0131C197.862 88.3581 195.461 84.7813 192.7 81.5591C190.01 78.4204 186.911 75.6362 184.059 72.6475C183.202 71.7495 176.328 63.1064 176.055 63.2272C178.187 71.4494 181.812 78.6035 186.772 85.4878C189.204 88.8627 192.122 91.0835 195.083 93.9425C197.548 96.3236 202.195 98.8695 201.342 102.771C205.196 102.4 209.025 101.808 212.914 101.808C212.274 96.8863 211.784 92.0423 210.643 87.2012C209.347 81.7041 208.469 76.0427 207.372 70.4969C206.252 64.8352 204.354 59.354 203.173 53.703C202.042 48.2918 201.07 42.8903 200.241 37.4188C199.556 40.4505 199.809 43.7805 199.565 46.8738C199.317 50.0342 199.341 53.1363 199.424 56.3152C199.577 62.2198 200.206 68.0532 200.741 73.944ZM217.441 45.7926C217.463 43.2652 217.952 40.7719 218.103 38.2505C218.15 37.4769 218.92 32.199 218.202 31.9235C217.611 33.2119 217.473 34.8606 216.936 36.2123C216.4 37.5628 215.683 38.8493 215.168 40.2092C214.054 43.1551 213.669 46.4884 213.549 49.6204C213.278 56.7045 213.137 63.7728 213.613 70.8569C213.817 73.8934 213.974 76.935 213.918 79.9775C213.857 83.3252 213.344 86.2309 213.967 89.5512C214.583 92.8391 214.97 96.1135 215.175 99.4495C215.319 101.791 215.377 101.625 217.611 101.461C219.224 101.342 220.853 101.469 222.468 101.395C221.712 92.2693 221.589 83.125 220.383 74.0345C219.767 69.3969 219.751 64.6922 218.987 60.0718C218.607 57.7766 217.969 55.5276 217.603 53.2298C217.21 50.7626 217.403 48.2788 217.441 45.7926ZM54.0848 40.0498C58.3853 40.4223 62.9598 41.7081 67.3678 40.8591C66.6412 40.5648 64.7397 40.1588 65.5955 38.9972C66.4656 37.8161 67.9319 39.3143 68.7997 39.1595C69.3348 39.064 70.5172 36.8273 70.847 36.3642C71.5956 35.3117 71.6859 35.1283 73.0319 34.8585C74.3359 34.5976 74.6315 34.8801 74.7966 33.5837C74.9863 32.0929 74.4705 30.4168 74.5217 28.8923C74.6315 25.6103 75.6903 22.7323 76.6757 19.6444C72.4889 20.5553 68.395 21.6354 64.1141 22.2225C62.284 22.4735 59.437 23.0524 57.7745 21.8084C57.3422 21.4849 57.4113 21.0481 57.0576 20.6732C56.4643 20.0441 55.3638 19.3934 54.5223 19.2142C49.3441 18.1119 48.839 25.4937 51.434 28.256C52.0839 28.9481 52.9882 29.2899 53.6538 29.9242C54.5422 30.7701 54.6149 31.6611 54.7446 32.9523C54.9878 35.3735 54.6575 37.8041 53.6245 40.019L54.0848 40.0498ZM116.923 74.8991C118.452 75.1893 120.047 75.123 121.58 75.3706C122.124 75.4585 123.757 75.7654 124.235 75.4471C124.967 74.961 125.226 73.1782 125.572 72.348C126.18 70.8877 127.04 69.6139 127.62 68.127C129.989 62.0536 132.198 55.956 135.063 50.09C133.965 49.8046 133.122 49.7933 132.015 49.6459C130.862 49.4922 129.817 48.8105 128.717 48.5175C127.672 48.2391 126.576 48.3101 125.541 47.9863C124.97 47.8081 124.48 47.4118 123.918 47.2732C123.021 47.0528 121.974 46.9239 121.441 47.5125C120.895 48.1162 120.703 49.7717 120.405 50.5515C119.613 52.6291 118.693 54.6342 118.03 56.7596C117.431 58.6765 116.862 60.573 116.335 62.5074C115.778 64.5495 114.681 66.2326 114.012 68.1834C113.504 69.6682 113.024 71.1862 112.948 72.7694C112.874 74.3142 112.649 74.4126 114.194 74.6594C114.974 74.7838 116.189 75.2472 116.923 74.8991ZM217.5 147.201C217.898 147.386 218.274 147.362 218.626 147.127C215.174 145.669 211.817 143.647 208.215 142.646C204.838 141.708 201.554 140.588 198.3 139.432C195.656 138.494 193.278 137.763 190.888 136.111C189.436 135.108 188.147 133.98 187.15 132.515C186.04 130.883 185.793 128.561 184.591 127.091C182.968 128.874 181.061 130.223 179.141 131.639C178.477 132.129 176.884 133.198 176.656 133.956C176.37 134.913 177.138 135.828 177.518 136.796C178.491 139.276 178.966 141.754 179.494 144.332C179.705 145.365 180.162 146.918 181.011 147.351C181.784 147.745 184.022 147.459 184.984 147.386C190.001 147.006 194.929 146.616 199.977 146.963C205.688 147.354 211.803 147.625 217.5 147.201ZM227.521 101.252C228.433 101.255 229.324 101.141 230.232 101.141C229.708 98.6923 230.934 95.5239 231.369 93.0797C231.855 90.3456 232.225 87.5185 232.55 84.7625C233.233 78.9576 233.543 73.2231 233.552 67.3756C233.56 61.7173 234.59 56.5467 236.033 51.1073C237.582 45.2655 240.119 40.0122 242.217 34.3784C239.916 35.5948 238.642 38.441 237.433 40.617C235.905 43.3682 234.887 46.4146 234.263 49.5032C233.059 55.4615 231.738 61.4379 230.349 67.3863C228.902 73.58 228.051 79.8306 226.394 85.9736C225.586 88.9694 224.487 92.6549 224.426 95.7443C224.4 97.0223 224.015 99.6987 224.594 100.809C225.136 101.847 226.334 101.358 227.521 101.252ZM89.8794 93.5671C89.8314 94.2032 89.786 94.8082 89.6731 95.4365C90.9361 95.4245 92.5357 94.1139 93.619 93.5256C94.9387 92.8089 96.2599 92.0183 97.5506 91.298C100.042 89.9068 102.871 88.9902 105.532 87.8475C108.588 86.5346 111.397 84.9483 114.32 83.3677C115.341 82.8156 122.678 79.6351 122.555 78.7663C120.944 78.7126 119.333 78.6591 117.722 78.6056C116.341 78.5597 114.202 78.8717 112.879 78.4449C112.155 78.2108 111.342 77.3496 111.068 76.6751C110.798 76.0077 111.406 72.9382 111.053 72.7425C109.25 74.5832 108.116 77.0297 106.504 79.0155C104.723 81.2102 102.421 82.4918 99.8845 83.6581C97.0831 84.9462 94.1836 85.9436 91.3207 87.0475C90.1132 87.513 90.1372 87.7794 90.0321 89.1032C89.9144 90.5828 89.9272 92.0836 89.8794 93.5671ZM235.452 149.234C238.489 149.56 241.601 149.374 244.661 149.629C245.775 149.721 247.318 149.859 246.198 151.353C245.493 152.294 243.233 151.993 242.208 152.058C239.455 152.233 236.541 152.139 233.783 152.098C233.202 152.09 232.56 151.917 231.973 151.956C231.295 152 230.484 152.488 229.866 152.484C229.486 152.482 229.349 152.08 229.021 152.043C228.306 151.963 227.591 151.904 226.87 151.905C215.967 151.907 205.213 151.688 194.337 151.676C189.136 151.671 183.852 151.581 178.653 151.337C177.562 151.285 171.345 151.509 171.517 149.543C171.606 148.531 173.635 148.388 174.375 148.28C174.924 148.201 175.493 148.213 176.043 148.184C177.503 148.106 178.143 148.457 177.835 146.859C176.666 140.798 174.572 135.788 170.098 131.43C166.44 127.866 162.035 124.634 157.891 121.658C152.86 118.044 148.778 114.244 145.791 108.714C144.046 105.485 142.586 102.184 141.69 98.6138C141.367 97.3294 141.36 95.8685 140.965 94.6303C140.661 93.6769 139.968 93.0098 139.56 92.0222C134.554 100.383 127.919 107.378 121.836 114.917C118.929 118.519 115.613 121.939 112.14 125.073C111.11 126.003 110.148 126.973 109.186 127.974C108.381 128.811 107.104 129.556 106.425 130.485C105.773 131.376 105.933 131.334 106.925 132.042C108.237 132.977 109.682 133.754 111.014 134.666C113.143 136.124 115.467 137.356 117.37 139.111C119.429 141.009 121.228 143.208 123.027 145.348C124.227 146.774 125.8 148.604 126.102 150.408C126.202 151.004 126.581 152.48 126.081 152.917C125.653 153.29 125.696 153.149 125.165 152.921C124.468 152.622 124.264 151.938 123.413 151.611C121.238 150.776 118.605 151.063 116.341 151.053C114.076 151.043 111.793 151.297 109.529 151.288C104.36 151.266 99.3011 151.685 94.1335 151.91C88.6451 152.148 83.0893 151.576 77.6191 151.657C73.5662 151.717 69.4053 151.414 65.2404 151.639C63.0981 151.755 60.9941 151.487 58.9053 151.457C56.1705 151.417 53.3618 151.789 50.6035 151.842C46.0762 151.93 41.6043 151.929 37.0494 152.038C27.2518 152.273 17.5071 152.515 7.70381 152.67C6.39615 152.691 4.96455 152.646 3.67228 152.793C2.30069 152.95 3.00879 153.241 2.0677 153.735C-0.566947 155.117 0.0414896 149.994 0.104629 148.986C0.443287 143.587 1.81409 138.291 3.46146 133.164C5.0243 128.302 6.29309 123.214 7.61667 118.247C9.06549 112.81 10.9532 107.596 12.6673 102.213C14.4237 96.6969 15.8538 90.9658 19.0439 86.0762C19.7705 84.9626 20.5214 83.7643 21.6903 83.0622C23.0005 82.275 23.0569 82.7347 23.0559 81.2943C23.0551 79.9375 23.1386 78.125 22.8184 76.8304C22.5291 75.6607 22.5737 76.3542 21.9222 75.5141C21.3921 74.8308 20.8374 74.3638 20.457 73.5341C18.1203 75.9034 12.7714 74.6531 10.5138 72.947C7.75052 70.8587 5.64578 67.3357 4.87454 63.9804C4.25514 61.286 5.01516 56.1501 7.99734 54.8544C9.45111 54.2228 14.7908 53.7453 15.0045 51.6867C15.1146 50.6241 13.2353 49.1299 12.8017 48.2162C11.9981 46.5234 11.2263 44.2718 11.003 42.4162C10.5667 38.7943 12.211 34.7442 14.8302 32.2977C19.6351 27.8095 28.0893 25.5062 34.2699 28.3538C32.9638 23.3645 32.1754 19.0603 32.8331 13.8703C33.3998 9.39913 36.0378 6.89755 39.6678 4.67044C45.8623 0.869464 54.2859 -0.630753 61.3688 0.474451C62.9783 0.725705 64.5229 1.26448 66.0132 1.69315C68.1782 2.31593 70.7701 2.10852 72.8143 3.12039C74.2965 3.8538 75.422 5.31488 76.7237 6.29042C78.2435 7.42928 79.5063 9.12909 80.5622 10.7011C82.8203 14.0626 81.9379 20.3014 80.0479 23.6757C79.6427 24.3995 79.1421 25.0087 78.4715 25.5026C77.7733 26.0166 76.7091 26.1765 76.3493 26.8431C75.4278 28.5508 76.3167 32.2476 76.4396 34.0932C76.5828 36.2363 75.4993 37.8461 73.0692 38.017C71.6634 38.1162 71.6185 37.3006 70.9454 38.9787C70.5092 40.0664 70.1128 41.2515 69.4833 42.2487C68.1853 44.3038 65.8079 44.1032 63.6423 44.0476C61.1355 43.9829 58.6663 43.5869 56.1582 43.3369C56.8207 45.4594 58.634 47.1068 59.7663 48.9976C61.2973 51.555 62.2188 53.6749 62.4677 56.6544C62.6587 58.9436 62.2465 60.7514 60.68 62.4552C60.0316 63.1604 59.4569 63.1951 59.6178 64.0086C59.7159 64.5049 60.5741 65.3236 60.8778 65.7197C61.6811 66.7675 62.6138 67.7292 63.3209 68.8482C66.0416 73.1537 66.8452 79.7171 66.852 84.7291C66.8523 84.959 66.9749 85.4476 66.8734 85.6853C66.7983 85.8609 66.2274 86.4169 66.2191 86.4647C66.1074 87.1091 66.7357 88.2138 67.7216 88.3231C68.7572 88.4376 70.6537 87.5735 71.617 87.2896C73.1584 86.8351 74.7296 86.4996 76.2676 86.0329C78.7517 85.2791 81.2244 84.678 83.7497 84.0873C84.8909 83.8206 86.0384 83.5983 87.1832 83.3489C88.4872 83.065 89.0931 82.5163 89.7662 83.8431C90.3436 84.9817 89.9846 85.188 91.3833 84.6143C92.7721 84.0442 94.1291 83.3377 95.485 82.6943C97.8765 81.5599 100.725 80.5486 102.788 78.8738C106.229 76.0798 107.503 71.6302 110.796 68.6656C111.713 67.84 112.261 67.8254 112.84 66.6819C113.461 65.458 113.781 63.8883 114.107 62.5718C114.679 60.2664 115.086 57.953 115.604 55.6497C116.25 52.7802 117.645 50.1816 118.664 47.4446C119.061 46.3783 119.266 45.0229 119.906 44.0646C120.076 43.8105 120.4 43.6672 120.532 43.4569C120.987 42.735 120.983 42.5367 121.101 41.6682C121.652 37.6097 124.075 39.7447 126.722 40.6754C127.838 41.0676 133.134 43.6106 131.111 45.3018C133.522 46.0013 137.383 45.6212 137.351 49.0761C137.334 50.8464 136.276 52.74 135.707 54.397C135.202 55.8683 134.715 57.3453 134.202 58.8142C133.079 62.032 131.716 65.1535 130.62 68.3812C130.12 69.8522 129.708 71.3576 129.012 72.7459C128.399 73.9706 126.914 75.3205 126.669 76.6598C133.093 73.9189 139.036 69.9563 146.227 70.2088C149.376 70.3192 152.233 71.6428 153.972 74.4113C156.152 77.8813 157.587 81.7665 159.718 85.2687C167.47 98.0085 176.715 109.582 185.225 121.795C185.878 122.733 186.719 123.621 186.946 124.78C187.094 125.537 186.807 126.294 186.984 127.021C187.352 128.532 189.212 130.418 190.474 131.286C192.891 132.95 196.821 135.297 199.838 135.089C197.945 130.539 197.97 125.553 198.058 120.7C198.142 116.089 198.64 111.516 199.231 106.953C199.365 105.92 199.482 104.963 199.779 103.963C200.119 102.815 200.587 102.923 199.567 101.892C197.997 100.303 196.13 98.9952 194.548 97.3865C191.125 93.9076 187.618 91.1808 184.924 87.0264C182.362 83.0749 179.66 79.0092 177.764 74.6821C175.812 70.2276 175.031 65.4705 174.062 60.753C173.669 58.8387 172.235 56.7016 172.523 54.7026C172.887 52.1762 174.059 54.0159 174.536 55.3755C175.991 59.5257 179.399 63.2402 182.221 66.578C185.271 70.1838 189 73.2006 192.184 76.7015C195.65 80.5144 198.024 84.8963 201.106 88.9665C201.106 83.9153 199.382 78.7718 198.676 73.7749C198.056 69.3768 197.861 64.9648 197.468 60.5477C196.577 50.5137 197.347 40.1841 198.598 30.2219C199.192 25.4906 198.855 20.8707 198.873 16.1232C198.879 14.6123 198.253 11.13 199.05 9.78918C200.577 7.22107 201.467 12.8366 201.545 13.6738C202.006 18.6613 201.178 23.5933 201.601 28.5594C202.043 33.7454 203.002 38.7859 203.818 43.912C204.703 49.4622 206.142 54.8873 207.52 60.3311C208.967 66.0468 210.184 71.8818 211.793 77.5518C212.227 75.7695 211.618 73.58 211.498 71.7649C211.326 69.1673 210.991 66.5692 210.962 63.9648C210.915 59.814 210.883 55.5863 211.118 51.4548C211.349 47.3826 211.279 43.1154 212.528 39.1921C213.121 37.3301 213.99 35.5134 214.841 33.7593C215.89 31.5963 216.261 29.4992 216.842 27.1988C217.34 25.2286 218.069 23.3105 218.4 21.3009C218.606 20.0512 219.182 16.362 220.613 19.1571C221.443 20.7794 221.084 23.1844 221.107 24.9273C221.137 27.1617 220.795 29.3343 220.743 31.5593C220.641 35.9248 220.567 40.2851 220.242 44.6433C219.9 49.2157 220.198 53.3135 221.068 57.8188C222.02 62.7505 222.299 67.6929 222.792 72.6848C223.047 75.2623 223.476 77.8255 223.683 80.4066C223.792 81.7735 223.23 85.6931 224.21 86.6666C224.305 84.2991 224.983 81.9296 225.497 79.6226C226.106 76.8896 226.352 74.0165 226.801 71.2444C227.529 66.7531 228.94 62.464 229.873 58.0231C231.797 48.8687 233.396 37.1031 241.46 31.1111C242.515 30.327 243.675 29.7483 244.816 29.1031C245.461 28.7378 246.421 27.7928 247.16 27.6279C247.966 27.4479 248.302 27.5878 248.629 28.5234C249.085 29.8277 248.251 30.4369 247.473 31.3842C244.78 34.6623 243.629 38.8644 241.966 42.7089C238.158 51.5122 236.473 60.7974 236.454 70.3132C236.444 75.2947 236.1 80.0993 235.569 85.0505C234.997 90.379 234.244 96.0146 232.625 101.141C234.249 101.505 236.011 100.962 236.451 102.849C236.56 103.313 236.364 103.861 236.484 104.465C236.6 105.051 236.88 105.635 237.046 106.211C237.388 107.405 237.569 108.582 237.736 109.807C238.379 114.542 239.484 119.045 239.602 123.846C239.71 128.284 238.842 132.78 238.041 137.133C237.235 141.517 234.922 145.254 233.101 149.218C233.885 149.218 234.668 149.226 235.452 149.234Z" fill="black"/>
<path fill-rule="evenodd" clip-rule="evenodd" d="M132.394 139.157C131.53 139.401 127.361 139.862 127.362 141.17C127.362 141.955 131.526 141.939 132.263 142.025C132.306 141.069 132.35 140.113 132.394 139.157ZM141.596 148.184C143.998 148.641 147.26 147.999 148.796 145.881C149.513 144.891 149.853 143.386 150.087 142.205C150.311 141.079 150.999 138.27 150.531 137.215C149.955 135.92 144.435 137.274 142.828 137.422C140.023 137.681 137.123 137.712 134.317 137.529C134.317 140.427 134.169 143.251 135.873 145.745C137.103 147.544 139.412 147.969 141.596 148.184ZM141.113 151.763C138.503 150.808 135.762 151.429 134.062 148.626C133.631 147.915 133.268 147.151 133.007 146.361C132.879 146.015 132.78 145.661 132.71 145.298C132.843 144.517 132.556 144.297 131.851 144.637C130.468 144.368 128.951 145.318 127.493 145.038C123.958 144.359 124.6 139.296 126.973 137.543C127.441 137.196 127.909 137.1 128.446 136.929C129.628 136.552 130.268 136.973 131.35 136.866C132.224 136.78 132.464 135.863 133.403 135.459C134.018 135.195 134.872 135.216 135.518 135.189C138.902 135.05 142.296 135.051 145.701 134.831C147.289 134.728 149.004 134.98 150.56 134.708C151.288 134.581 151.184 134.096 151.873 134.521C152.588 134.962 152.279 136.59 152.243 137.24C152.035 140.995 151.811 145.022 149.799 148.305C147.959 151.309 144.337 151.617 141.113 151.763Z" fill="black"/>
<path fill-rule="evenodd" clip-rule="evenodd" d="M3.25244 152.798C4.0923 152.789 4.9319 152.78 5.76889 152.771C4.92799 152.78 4.09021 152.789 3.25244 152.798Z" fill="black"/>
<path fill-rule="evenodd" clip-rule="evenodd" d="M236.459 72.7315C236.458 71.9248 236.456 71.118 236.454 70.3129C236.455 71.1201 236.457 71.9258 236.459 72.7315Z" fill="black"/>
<path fill-rule="evenodd" clip-rule="evenodd" d="M22.8211 76.0445C22.8185 76.8303 22.8158 77.6162 22.8132 78.4002C22.8156 77.6138 22.8182 76.829 22.8211 76.0445Z" fill="black"/>
<path fill-rule="evenodd" clip-rule="evenodd" d="M92.6318 151.907C93.3 151.908 93.9682 151.909 94.6333 151.911C93.964 151.91 93.2982 151.909 92.6318 151.907Z" fill="black"/>
<path fill-rule="evenodd" clip-rule="evenodd" d="M52.0615 151.747C52.7297 151.749 53.3976 151.751 54.0627 151.753C53.3935 151.752 52.7276 151.749 52.0615 151.747Z" fill="black"/>
<path fill-rule="evenodd" clip-rule="evenodd" d="M198.146 119.109C198.117 119.64 198.087 120.17 198.058 120.699C198.088 120.168 198.117 119.639 198.146 119.109Z" fill="black"/>
<path fill-rule="evenodd" clip-rule="evenodd" d="M235.452 149.234C234.936 149.228 234.419 149.223 233.903 149.218C234.422 149.001 234.938 149.011 235.452 149.234Z" fill="black"/>
<path fill-rule="evenodd" clip-rule="evenodd" d="M189.609 151.583C189.979 151.577 190.35 151.571 190.717 151.565C190.345 151.57 189.977 151.577 189.609 151.583Z" fill="black"/>
<path fill-rule="evenodd" clip-rule="evenodd" d="M236.258 79.2771C236.267 78.8761 236.276 78.4753 236.285 78.0759C236.276 78.4771 236.267 78.8771 236.258 79.2771Z" fill="black"/>
<path fill-rule="evenodd" clip-rule="evenodd" d="M201.602 28.5594C201.571 28.1458 201.541 27.7326 201.51 27.3201C201.541 27.7339 201.571 28.1466 201.602 28.5594Z" fill="black"/>
<path fill-rule="evenodd" clip-rule="evenodd" d="M236.441 74.3108C236.446 73.8962 236.451 73.4819 236.456 73.0688C236.451 73.4837 236.446 73.8972 236.441 74.3108Z" fill="black"/>
<path fill-rule="evenodd" clip-rule="evenodd" d="M119.898 151.069C120.227 151.074 120.557 151.078 120.883 151.082C120.553 151.077 120.225 151.073 119.898 151.069Z" fill="black"/>
<path fill-rule="evenodd" clip-rule="evenodd" d="M204.772 151.745C205.094 151.751 205.417 151.757 205.736 151.764C205.412 151.758 205.093 151.751 204.772 151.745Z" fill="black"/>
<path fill-rule="evenodd" clip-rule="evenodd" d="M239.565 122.599C239.542 122.235 239.519 121.872 239.496 121.509C239.519 121.872 239.542 122.235 239.565 122.599Z" fill="black"/>
<path fill-rule="evenodd" clip-rule="evenodd" d="M233.782 152.098C234.044 152.096 234.307 152.095 234.566 152.094C234.303 152.096 234.042 152.097 233.782 152.098Z" fill="black"/>
<path fill-rule="evenodd" clip-rule="evenodd" d="M198.06 151.761C198.319 151.755 198.579 151.748 198.836 151.742C198.575 151.749 198.317 151.755 198.06 151.761Z" fill="black"/>
<path fill-rule="evenodd" clip-rule="evenodd" d="M139.698 151.563C139.984 151.561 140.269 151.56 140.552 151.558C140.266 151.559 139.982 151.561 139.698 151.563Z" fill="black"/>
<path fill-rule="evenodd" clip-rule="evenodd" d="M73.7903 151.562C74.0619 151.564 74.3338 151.566 74.6025 151.568C74.3298 151.566 74.0601 151.564 73.7903 151.562Z" fill="black"/>
<path fill-rule="evenodd" clip-rule="evenodd" d="M57.7573 151.606C58.0344 151.59 58.311 151.575 58.5854 151.559C58.3076 151.575 58.0326 151.59 57.7573 151.606Z" fill="black"/>
<path fill-rule="evenodd" clip-rule="evenodd" d="M134.518 46.0378C134.105 46.0023 133.693 45.9668 133.281 45.9311C133.694 45.96 134.13 45.7158 134.518 46.0378Z" fill="black"/>
<path fill-rule="evenodd" clip-rule="evenodd" d="M239.604 149.391C239.198 149.35 238.791 149.309 238.385 149.267C238.792 149.309 239.198 149.35 239.604 149.391Z" fill="black"/>
<path fill-rule="evenodd" clip-rule="evenodd" d="M211.251 48.5407C211.224 48.8968 211.196 49.2532 211.169 49.6083C211.196 49.2517 211.224 48.8961 211.251 48.5407Z" fill="black"/>
<path fill-rule="evenodd" clip-rule="evenodd" d="M236.543 63.3895C236.57 63.0519 236.598 62.7142 236.626 62.3779C236.598 62.7161 236.57 63.0526 236.543 63.3895Z" fill="black"/>
<path fill-rule="evenodd" clip-rule="evenodd" d="M211.089 54.0651C211.059 54.4207 211.03 54.7761 211.001 55.1304C211.03 54.7745 211.059 54.4197 211.089 54.0651Z" fill="black"/>
<path fill-rule="evenodd" clip-rule="evenodd" d="M236.371 77.0187C236.368 76.6751 236.366 76.3315 236.364 75.9889C236.585 76.3315 236.576 76.6743 236.371 77.0187Z" fill="black"/>
<path fill-rule="evenodd" clip-rule="evenodd" d="M198.152 126.365C198.149 126.709 198.146 127.054 198.142 127.397C197.915 127.049 197.96 126.706 198.152 126.365Z" fill="black"/>
<path fill-rule="evenodd" clip-rule="evenodd" d="M224.06 86.5181C224.021 86.1695 223.981 85.8207 223.941 85.4731C223.981 85.8222 224.021 86.1703 224.06 86.5181Z" fill="black"/>
<path fill-rule="evenodd" clip-rule="evenodd" d="M9.52561 54.5233C9.2561 54.8794 8.889 54.6354 8.5686 54.6788C8.88795 54.6268 9.20679 54.5752 9.52561 54.5233Z" fill="black"/>
<path fill-rule="evenodd" clip-rule="evenodd" d="M142.795 135.078C142.455 135.078 142.114 135.079 141.774 135.079C142.114 135.079 142.455 135.078 142.795 135.078Z" fill="black"/>
<path fill-rule="evenodd" clip-rule="evenodd" d="M197.194 55.9865C197.225 56.2761 197.257 56.5657 197.289 56.8542C197.257 56.5641 197.225 56.2753 197.194 55.9865Z" fill="black"/>
<path fill-rule="evenodd" clip-rule="evenodd" d="M28.9224 27.2238C28.5801 27.2306 28.2378 27.2373 27.8955 27.2441C28.2342 27.0448 28.5754 26.9871 28.9224 27.2238Z" fill="black"/>
<path fill-rule="evenodd" clip-rule="evenodd" d="M211.08 59.0748C211.058 59.3785 211.036 59.6819 211.014 59.9843C211.036 59.6806 211.058 59.3777 211.08 59.0748Z" fill="black"/>
<path fill-rule="evenodd" clip-rule="evenodd" d="M201.693 21.7959C201.72 21.5191 201.746 21.2422 201.773 20.967C201.746 21.2443 201.72 21.5201 201.693 21.7959Z" fill="black"/>
<path fill-rule="evenodd" clip-rule="evenodd" d="M199.004 20.9286C198.977 21.2289 198.95 21.5295 198.923 21.8287C198.95 21.5279 198.977 21.2281 199.004 20.9286Z" fill="black"/>
<path fill-rule="evenodd" clip-rule="evenodd" d="M50.3142 0.866882C49.9659 0.909148 49.6176 0.951414 49.2695 0.993419C49.6178 0.951153 49.9659 0.909148 50.3142 0.866882Z" fill="black"/>
<path fill-rule="evenodd" clip-rule="evenodd" d="M25.1565 27.4628C24.7991 27.4993 24.4417 27.5358 24.0845 27.5724C24.4419 27.5358 24.7994 27.4993 25.1565 27.4628Z" fill="black"/>
<path fill-rule="evenodd" clip-rule="evenodd" d="M221.028 28.343C221.05 28.0636 221.072 27.7839 221.094 27.506C221.072 27.7857 221.05 28.0644 221.028 28.343Z" fill="black"/>
<path fill-rule="evenodd" clip-rule="evenodd" d="M13.4248 74.46C13.6307 74.4631 13.8363 74.466 14.039 74.4691C13.8323 74.466 13.6286 74.4631 13.4248 74.46Z" fill="black"/>
<path fill-rule="evenodd" clip-rule="evenodd" d="M199.014 108.948C198.993 109.258 198.973 109.567 198.952 109.876C198.973 109.566 198.994 109.257 199.014 108.948Z" fill="black"/>
<path fill-rule="evenodd" clip-rule="evenodd" d="M220.013 48.7303C220.005 48.4321 219.996 48.1342 219.988 47.8367C219.997 48.1352 220.005 48.4326 220.013 48.7303Z" fill="black"/>
<path fill-rule="evenodd" clip-rule="evenodd" d="M59.0822 0.161315C58.7647 0.161315 58.4471 0.161576 58.1301 0.161576C58.4477 -0.0565469 58.7649 -0.0510676 59.0822 0.161315Z" fill="black"/>
<path fill-rule="evenodd" clip-rule="evenodd" d="M143.854 70.3515C143.506 70.3604 143.158 70.3692 142.811 70.3781C143.153 70.1365 143.501 70.1305 143.854 70.3515Z" fill="black"/>
<path fill-rule="evenodd" clip-rule="evenodd" d="M174.247 151.056C174.453 151.061 174.66 151.065 174.863 151.07C174.656 151.066 174.452 151.061 174.247 151.056Z" fill="black"/>
<path fill-rule="evenodd" clip-rule="evenodd" d="M182.01 151.419C182.216 151.411 182.422 151.404 182.625 151.397C182.419 151.404 182.215 151.412 182.01 151.419Z" fill="black"/>
<path fill-rule="evenodd" clip-rule="evenodd" d="M60.5071 151.562C60.7218 151.567 60.9365 151.573 61.1484 151.578C60.9329 151.573 60.72 151.567 60.5071 151.562Z" fill="black"/>
<path fill-rule="evenodd" clip-rule="evenodd" d="M239.387 119.148C239.356 118.853 239.326 118.558 239.295 118.265C239.326 118.56 239.356 118.854 239.387 119.148Z" fill="black"/>
<path fill-rule="evenodd" clip-rule="evenodd" d="M211.344 69.4459C211.368 69.7269 211.392 70.0078 211.416 70.287C211.392 70.0058 211.368 69.7258 211.344 69.4459Z" fill="black"/>
<path fill-rule="evenodd" clip-rule="evenodd" d="M222.136 64.6215C222.102 64.3235 222.069 64.0255 222.036 63.7286C222.069 64.0269 222.102 64.324 222.136 64.6215Z" fill="black"/>
<path fill-rule="evenodd" clip-rule="evenodd" d="M62.2493 151.74C62.4658 151.736 62.6826 151.733 62.8968 151.73C62.6792 151.734 62.4643 151.737 62.2493 151.74Z" fill="black"/>
<path fill-rule="evenodd" clip-rule="evenodd" d="M141.113 151.763C141.323 151.754 141.534 151.744 141.742 151.735C141.531 151.744 141.322 151.754 141.113 151.763Z" fill="black"/>
<path fill-rule="evenodd" clip-rule="evenodd" d="M220.374 42.8646C220.364 42.5628 220.355 42.2609 220.345 41.9595C220.355 42.2617 220.365 42.563 220.374 42.8646Z" fill="black"/>
<path fill-rule="evenodd" clip-rule="evenodd" d="M41.7151 151.937C41.9264 151.935 42.1375 151.934 42.346 151.932C42.1336 151.934 41.9246 151.936 41.7151 151.937Z" fill="black"/>
<path fill-rule="evenodd" clip-rule="evenodd" d="M220.285 151.934C220.502 151.936 220.72 151.938 220.934 151.941C220.716 151.938 220.501 151.936 220.285 151.934Z" fill="black"/>
<path fill-rule="evenodd" clip-rule="evenodd" d="M224.976 151.908C225.185 151.923 225.395 151.938 225.602 151.952C225.391 151.937 225.184 151.923 224.976 151.908Z" fill="black"/>
<path fill-rule="evenodd" clip-rule="evenodd" d="M226.87 151.904C227.084 151.911 227.297 151.917 227.508 151.922C227.294 151.915 227.082 151.91 226.87 151.904Z" fill="black"/>
<path fill-rule="evenodd" clip-rule="evenodd" d="M236.595 65.8182C236.581 65.5213 236.567 65.2241 236.553 64.928C236.568 65.2254 236.581 65.5218 236.595 65.8182Z" fill="black"/>
<path fill-rule="evenodd" clip-rule="evenodd" d="M93.2703 148.012C93.9197 147.979 94.5693 147.945 95.219 147.911C94.5693 147.945 93.9197 147.978 93.2703 148.012Z" fill="black"/>
<path fill-rule="evenodd" clip-rule="evenodd" d="M54.085 40.0497C54.6488 40.0987 55.2126 40.1478 55.7759 40.1963C55.2121 40.1475 54.6485 40.0985 54.085 40.0497Z" fill="black"/>
<path fill-rule="evenodd" clip-rule="evenodd" d="M213.276 64.5624C213.294 65.1004 213.312 65.6384 213.329 66.1748C213.311 65.6366 213.294 65.0996 213.276 64.5624Z" fill="black"/>
<path fill-rule="evenodd" clip-rule="evenodd" d="M224.913 148.932C225.501 148.968 226.09 149.004 226.678 149.039C226.086 149.066 225.485 149.235 224.913 148.932Z" fill="black"/>
<path fill-rule="evenodd" clip-rule="evenodd" d="M221.429 85.2955C221.434 84.7823 221.438 84.2691 221.442 83.7572C221.438 84.2707 221.434 84.7831 221.429 85.2955Z" fill="black"/>
<path fill-rule="evenodd" clip-rule="evenodd" d="M219.923 101.42C220.439 101.427 220.956 101.434 221.472 101.44C220.955 101.433 220.439 101.427 219.923 101.42Z" fill="black"/>
<path fill-rule="evenodd" clip-rule="evenodd" d="M89.917 92.3974C89.904 92.7885 89.8912 93.1796 89.8789 93.5689C89.892 93.1773 89.9045 92.7875 89.917 92.3974Z" fill="black"/>
<path fill-rule="evenodd" clip-rule="evenodd" d="M228.518 75.8363C228.497 76.2256 228.476 76.6146 228.455 77.0018C228.476 76.6122 228.497 76.2243 228.518 75.8363Z" fill="black"/>
<path fill-rule="evenodd" clip-rule="evenodd" d="M217.5 147.201C217.876 147.175 218.251 147.15 218.626 147.126C218.344 147.352 218.06 147.371 217.5 147.201Z" fill="black"/>
<path fill-rule="evenodd" clip-rule="evenodd" d="M214.986 96.3241C215.011 96.7436 215.037 97.1632 215.063 97.5814C215.037 97.1616 215.011 96.7428 214.986 96.3241Z" fill="black"/>
<path fill-rule="evenodd" clip-rule="evenodd" d="M74.5093 30.1047C74.5132 29.6995 74.5171 29.2943 74.5213 28.8907C74.5174 29.2964 74.5135 29.7005 74.5093 30.1047Z" fill="black"/>
<path fill-rule="evenodd" clip-rule="evenodd" d="M215.44 101.504L216.841 101.474C216.379 101.697 215.912 101.705 215.44 101.504Z" fill="black"/>
<path fill-rule="evenodd" clip-rule="evenodd" d="M228.359 104.495C228.029 104.497 227.699 104.5 227.371 104.503C227.702 104.501 228.03 104.498 228.359 104.495Z" fill="black"/>
<path fill-rule="evenodd" clip-rule="evenodd" d="M107.436 147.362C107.893 147.368 108.35 147.374 108.808 147.379C108.347 147.61 107.889 147.643 107.436 147.362Z" fill="black"/>
<path fill-rule="evenodd" clip-rule="evenodd" d="M21.3289 148.709C21.7928 148.667 22.2569 148.626 22.7208 148.584C22.2569 148.626 21.7928 148.667 21.3289 148.709Z" fill="black"/>
<path fill-rule="evenodd" clip-rule="evenodd" d="M213.437 68.0177C213.46 68.4388 213.483 68.8599 213.505 69.2797C213.483 68.8581 213.46 68.438 213.437 68.0177Z" fill="black"/>
<path fill-rule="evenodd" clip-rule="evenodd" d="M65.3621 41.0383C65.7532 40.8455 66.1474 40.8132 66.5455 41.0174C66.1508 41.0245 65.7566 41.0315 65.3621 41.0383Z" fill="black"/>
<path fill-rule="evenodd" clip-rule="evenodd" d="M200.645 72.8802C200.677 73.2353 200.709 73.5906 200.742 73.9447C200.709 73.5891 200.677 73.2345 200.645 72.8802Z" fill="black"/>
<path fill-rule="evenodd" clip-rule="evenodd" d="M233.682 64.5919C233.482 64.2444 233.489 63.8987 233.692 63.5561C233.689 63.9018 233.686 64.247 233.682 64.5919Z" fill="black"/>
<path fill-rule="evenodd" clip-rule="evenodd" d="M213.502 52.5276C213.502 52.879 213.502 53.2307 213.502 53.5811C213.502 53.2289 213.502 52.8782 213.502 52.5276Z" fill="black"/>
<path fill-rule="evenodd" clip-rule="evenodd" d="M227.521 101.252C227.924 101.128 228.326 100.954 228.727 101.256C228.325 101.255 227.923 101.253 227.521 101.252Z" fill="black"/>
<path fill-rule="evenodd" clip-rule="evenodd" d="M97.4316 147.853C97.8368 147.816 98.2418 147.778 98.6467 147.74C98.2418 147.778 97.8368 147.816 97.4316 147.853Z" fill="black"/>
<path fill-rule="evenodd" clip-rule="evenodd" d="M41.8989 147.854C42.2699 147.691 42.6402 147.606 43.0057 147.867C42.6365 147.862 42.2678 147.858 41.8989 147.854Z" fill="black"/>
<path fill-rule="evenodd" clip-rule="evenodd" d="M117.787 147.331C118.184 147.158 118.58 147.062 118.971 147.343C118.576 147.339 118.182 147.335 117.787 147.331Z" fill="black"/>
<path fill-rule="evenodd" clip-rule="evenodd" d="M29.4731 96.0039C29.5029 96.3621 29.5329 96.7203 29.5624 97.0775C29.5324 96.719 29.5026 96.3616 29.4731 96.0039Z" fill="black"/>
<path fill-rule="evenodd" clip-rule="evenodd" d="M121.58 75.3703C121.97 75.2284 122.359 75.1543 122.742 75.3914C122.355 75.3841 121.967 75.3774 121.58 75.3703Z" fill="black"/>
<path fill-rule="evenodd" clip-rule="evenodd" d="M213.431 86.0336C213.453 86.3837 213.474 86.7338 213.496 87.0832C213.474 86.7328 213.453 86.3832 213.431 86.0336Z" fill="black"/>
<path fill-rule="evenodd" clip-rule="evenodd" d="M29.2211 54.4398C29.1887 54.7219 29.1564 55.0042 29.1243 55.2846C29.1566 55.0021 29.1887 54.7211 29.2211 54.4398Z" fill="black"/>
<path fill-rule="evenodd" clip-rule="evenodd" d="M6.5971 136.232C6.57701 136.507 6.55718 136.781 6.53735 137.054C6.55797 136.779 6.57753 136.505 6.5971 136.232Z" fill="black"/>
<path fill-rule="evenodd" clip-rule="evenodd" d="M221.603 87.8866C221.581 87.6027 221.559 87.3188 221.537 87.0363C221.559 87.3206 221.581 87.6037 221.603 87.8866Z" fill="black"/>
<path fill-rule="evenodd" clip-rule="evenodd" d="M193.177 146.801C193.525 146.803 193.873 146.806 194.22 146.808C193.873 146.806 193.525 146.803 193.177 146.801Z" fill="black"/>
<path fill-rule="evenodd" clip-rule="evenodd" d="M89.785 94.8129C89.85 95.0195 89.9149 95.2264 89.9799 95.4333C89.546 95.5382 89.481 95.3313 89.785 94.8129Z" fill="black"/>
<path fill-rule="evenodd" clip-rule="evenodd" d="M115.864 74.9032C116.217 74.9017 116.57 74.9004 116.924 74.8988C116.571 75.0663 116.218 75.1813 115.864 74.9032Z" fill="black"/>
<path fill-rule="evenodd" clip-rule="evenodd" d="M29.6709 97.6998C29.6829 98.0129 29.6949 98.3262 29.7064 98.6383C29.6941 98.3249 29.6824 98.0123 29.6709 97.6998Z" fill="black"/>
<path fill-rule="evenodd" clip-rule="evenodd" d="M33.4082 148.197C33.7492 148.197 34.09 148.196 34.431 148.196C34.0897 148.196 33.7492 148.197 33.4082 148.197Z" fill="black"/>
<path fill-rule="evenodd" clip-rule="evenodd" d="M201.502 101.001C201.515 101.289 201.527 101.578 201.54 101.864C201.528 101.575 201.515 101.288 201.502 101.001Z" fill="black"/>
<path fill-rule="evenodd" clip-rule="evenodd" d="M26.1694 148.548C26.5047 148.326 26.8407 148.345 27.1773 148.545C26.8413 148.546 26.5052 148.547 26.1694 148.548Z" fill="black"/>
<path fill-rule="evenodd" clip-rule="evenodd" d="M34.9978 50.4122C35.0158 50.7065 35.0341 51.001 35.0529 51.2935C35.0349 50.9987 35.0163 50.7054 34.9978 50.4122Z" fill="black"/>
<path fill-rule="evenodd" clip-rule="evenodd" d="M24.425 148.579C24.7736 148.58 25.1222 148.581 25.4705 148.583C25.1209 148.821 24.7726 148.832 24.425 148.579Z" fill="black"/>
<path fill-rule="evenodd" clip-rule="evenodd" d="M217.441 45.7922C217.444 45.4932 217.446 45.1945 217.449 44.8963C217.446 45.1956 217.443 45.4938 217.441 45.7922Z" fill="black"/>
<path fill-rule="evenodd" clip-rule="evenodd" d="M57.4138 40.5637C57.7473 40.6072 58.0807 40.6508 58.4139 40.6941C58.0804 40.6505 57.747 40.6072 57.4138 40.5637Z" fill="black"/>
<path fill-rule="evenodd" clip-rule="evenodd" d="M27.9895 66.3671C27.9939 66.6463 27.9984 66.9257 28.0036 67.2036C27.9992 66.9239 27.9945 66.6455 27.9895 66.3671Z" fill="black"/>
<path fill-rule="evenodd" clip-rule="evenodd" d="M219.686 66.327C219.667 66.0426 219.649 65.7582 219.631 65.4751C219.649 65.76 219.668 66.0436 219.686 66.327Z" fill="black"/>
<path fill-rule="evenodd" clip-rule="evenodd" d="M141.917 148.245C142.328 148.282 142.739 148.32 143.151 148.357C142.739 148.319 142.328 148.282 141.917 148.245Z" fill="black"/>
<path fill-rule="evenodd" clip-rule="evenodd" d="M140.542 137.594C140.319 137.598 140.097 137.601 139.877 137.606C140.1 137.603 140.321 137.599 140.542 137.594Z" fill="black"/>
<path fill-rule="evenodd" clip-rule="evenodd" d="M140.561 148.082C140.905 148.116 141.251 148.15 141.596 148.184C141.251 148.15 140.905 148.116 140.561 148.082Z" fill="black"/>
<path fill-rule="evenodd" clip-rule="evenodd" d="M78.4594 124.843C78.9085 127.381 74.9656 129.862 74.6531 126.255C74.5388 124.936 75.4207 124.009 76.4082 123.203C77.8098 122.059 78.5928 123.154 78.4594 124.843Z" fill="black"/>
<path fill-rule="evenodd" clip-rule="evenodd" d="M34.9991 93.8903C35.9279 94.2704 43.0243 96.5828 39.3382 97.746C38.3625 98.0538 36.8875 98.0998 36.0417 97.5573C35.0241 96.9045 33.9977 94.9782 34.9991 93.8903Z" fill="black"/>
<path fill-rule="evenodd" clip-rule="evenodd" d="M36.7459 59.533C39.1546 59.2533 41.3739 63.2094 38.4042 63.081C36.2426 62.9874 33.3355 59.533 36.7459 59.533Z" fill="black"/>
<path fill-rule="evenodd" clip-rule="evenodd" d="M45.3621 69.233C47.3734 70.9878 43.6453 74.9153 42.1652 73.3952C41.4094 72.6188 42.1065 70.9461 42.7303 70.2964C43.3706 69.6298 44.5097 69.5046 45.3621 69.233Z" fill="black"/>
<path fill-rule="evenodd" clip-rule="evenodd" d="M51.3502 114.727C50.1628 114.916 44.941 116.622 46.03 113.523C46.4454 112.341 47.6038 112.692 48.6628 112.746C50.3697 112.833 51.3502 112.751 51.3502 114.727Z" fill="black"/>
<path fill-rule="evenodd" clip-rule="evenodd" d="M47.9105 122.71C49.6881 123.661 47.0897 128.983 45.6164 127.851C43.5722 126.28 46.368 123.188 47.9105 122.71Z" fill="black"/>
<path fill-rule="evenodd" clip-rule="evenodd" d="M55.663 118.432C56.5274 118.079 60.602 121.998 59.0509 123.089C58.2559 123.648 56.7497 122.689 56.2704 122.112C55.3719 121.029 55.2905 119.692 55.663 118.432Z" fill="black"/>
<path fill-rule="evenodd" clip-rule="evenodd" d="M32.1546 86.3965C33.038 86.5415 34.5633 86.5875 34.6204 87.8289C34.6705 88.92 33.3026 89.2735 32.3396 89.3591C31.3403 89.4478 30.0175 89.1658 29.9984 87.9095C29.9783 86.5541 32.1233 86.6357 32.1546 86.3965Z" fill="black"/>
<path fill-rule="evenodd" clip-rule="evenodd" d="M53.9396 140.418C54.8804 140.989 59.2688 143.045 57.3877 144.531C56.6838 145.087 54.5498 143.939 54.0695 143.355C53.4963 142.658 52.9361 141.027 53.9396 140.418Z" fill="black"/>
<path fill-rule="evenodd" clip-rule="evenodd" d="M66.1392 125.495C66.0033 123.226 69.8329 122.322 69.0389 125.544C68.8151 126.452 68.5985 127.831 67.4753 127.884C66.1478 127.946 66.0998 126.376 66.1392 125.495Z" fill="black"/>
<path fill-rule="evenodd" clip-rule="evenodd" d="M54.309 86.0226C54.3356 87.7446 51.0362 89.2631 51.0106 86.5337C50.9879 84.0948 54.4321 83.3809 54.309 86.0226Z" fill="black"/>
<path fill-rule="evenodd" clip-rule="evenodd" d="M52.1306 77.0544C52.9436 77.3164 54.024 77.4513 54.0955 78.4842C54.1715 79.5774 53.156 80.064 52.2423 80.0027C51.493 79.9523 50.3841 79.3976 50.2479 78.5847C50.0483 77.3913 51.213 77.3133 52.1306 77.0544Z" fill="black"/>
<path fill-rule="evenodd" clip-rule="evenodd" d="M37.013 108.581C36.9992 107.16 39.8467 105.452 40.3711 107.101C40.5389 107.628 39.1968 109.994 38.7504 110.171C37.5692 110.64 37.4044 109.547 37.013 108.581Z" fill="black"/>
<path fill-rule="evenodd" clip-rule="evenodd" d="M60.3472 132.23C59.385 133.091 56.4986 135.511 56.7144 132.263C56.8521 130.188 60.6011 130.297 60.3472 132.23Z" fill="black"/>
<path fill-rule="evenodd" clip-rule="evenodd" d="M107.374 141.512C107.689 140.147 112.205 142.516 110.698 144.241C110.193 144.82 108.87 144.296 108.362 143.953C107.355 143.274 107.333 142.647 107.374 141.512Z" fill="black"/>
<path fill-rule="evenodd" clip-rule="evenodd" d="M82.2131 112.281C82.3892 111.672 82.5849 110.596 83.1657 110.207C84.2166 109.504 85.1316 110.565 85.1319 111.682C85.1322 113.767 82.7592 114.424 82.2131 112.281Z" fill="black"/>
<path fill-rule="evenodd" clip-rule="evenodd" d="M71.0212 136.655C72.1937 136.923 74.8044 139.773 73.2903 140.936C71.8332 142.055 69.8951 137.506 71.0212 136.655Z" fill="black"/>
<path fill-rule="evenodd" clip-rule="evenodd" d="M72.137 115.081C73.6446 115.201 75.7167 117.642 73.3735 118.03C71.5406 118.334 69.409 115.679 72.137 115.081Z" fill="black"/>
<path fill-rule="evenodd" clip-rule="evenodd" d="M85.7851 126.315C86.1631 125.041 89.9019 126.406 89.6919 127.808C89.5802 128.553 88.0516 128.728 87.248 128.531C86.065 128.241 85.7579 127.465 85.7851 126.315Z" fill="black"/>
<path fill-rule="evenodd" clip-rule="evenodd" d="M41.7135 55.1896C41.7406 53.5433 44.9041 52.8723 45.1358 54.5314C45.3453 56.0303 41.6738 57.6252 41.7135 55.1896Z" fill="black"/>
<path fill-rule="evenodd" clip-rule="evenodd" d="M84.7405 143.278C84.9685 142.451 85.0669 141.454 86.1008 141.345C87.2848 141.22 87.2499 142.128 87.1108 143.069C86.732 145.629 85.2855 145.756 84.7405 143.278Z" fill="black"/>
<path fill-rule="evenodd" clip-rule="evenodd" d="M34.7824 74.7772C33.1332 75.1493 30.1127 71.973 31.9589 71.2915C33.2598 70.8106 34.7824 73.8189 34.7824 74.7772Z" fill="black"/>
<path fill-rule="evenodd" clip-rule="evenodd" d="M55.8175 99.4497C54.9782 99.845 54.7849 100.085 54.1402 99.4361C53.5787 98.8713 53.6035 97.2975 54.0854 96.7099C55.931 94.4598 55.8877 98.5391 55.8175 99.4497Z" fill="black"/>
<path fill-rule="evenodd" clip-rule="evenodd" d="M62.6652 94.8862C63.5405 94.9976 66.1415 97.4647 64.7871 98.4452C63.1275 99.6464 62.1885 95.8834 62.6652 94.8862Z" fill="black"/>
<path fill-rule="evenodd" clip-rule="evenodd" d="M81.6042 95.5358C80.9679 97.986 79.3797 96.3373 79.4697 94.4833C79.6143 91.5137 81.2601 94.1 81.6042 95.5358Z" fill="black"/>
<path fill-rule="evenodd" clip-rule="evenodd" d="M91.2605 134.887C92.337 135.333 93.7981 139.448 92.2605 139.669C90.5336 139.916 91.1086 135.744 91.2605 134.887Z" fill="black"/>
<path fill-rule="evenodd" clip-rule="evenodd" d="M77.8173 132.575C79.0491 132.16 79.5004 134.758 78.7845 135.241C77.2094 136.303 77.5415 133.189 77.8173 132.575Z" fill="black"/>
<path fill-rule="evenodd" clip-rule="evenodd" d="M66.1395 125.496C66.1238 125.84 66.1085 126.185 66.0923 126.528C66.1077 126.183 66.1233 125.839 66.1395 125.496Z" fill="black"/>
<path fill-rule="evenodd" clip-rule="evenodd" d="M107.374 141.512C107.361 141.866 107.348 142.22 107.335 142.572C107.347 142.217 107.361 141.865 107.374 141.512Z" fill="black"/>
<path fill-rule="evenodd" clip-rule="evenodd" d="M85.7853 126.315C85.7786 126.615 85.7713 126.915 85.7634 127.213C85.7702 126.912 85.778 126.613 85.7853 126.315Z" fill="black"/>
<path fill-rule="evenodd" clip-rule="evenodd" d="M222.03 121.151C224.584 121.069 227.433 120.108 229.942 120.414C230.633 120.498 232.224 120.672 231.117 121.696C230.587 122.186 228.053 121.933 227.286 122.096C222.597 123.088 217.275 123.729 212.467 123.646C210.217 123.607 207.949 123.427 205.7 123.308C203.452 123.189 203.231 122.276 205.76 121.985C208.387 121.683 211.083 121.795 213.723 121.792C216.499 121.789 219.26 121.336 222.03 121.151Z" fill="black"/>
<path fill-rule="evenodd" clip-rule="evenodd" d="M227.636 114.998C227.391 115.698 227.175 117.304 226.233 117.41C224.914 117.557 224.695 115.292 224.744 114.464C224.803 113.464 225.163 111.803 226.405 112.149C227.455 112.442 227.56 114.198 227.636 114.998Z" fill="black"/>
<path fill-rule="evenodd" clip-rule="evenodd" d="M219.651 114.486C219.843 113.736 219.938 112.047 220.998 111.989C222.183 111.926 222.521 113.686 222.513 114.529C222.505 115.33 222.209 116.843 221.266 117.028C219.987 117.278 219.873 115.342 219.651 114.486Z" fill="black"/>
<path fill-rule="evenodd" clip-rule="evenodd" d="M206.351 115.83C205.967 116.731 205.713 117.971 204.525 117.357C203.607 116.882 203.479 114.967 203.652 114.09C203.832 113.181 204.212 112.139 205.256 112.548C206.459 113.019 206.338 114.838 206.351 115.83Z" fill="black"/>
<path fill-rule="evenodd" clip-rule="evenodd" d="M216.422 114.998C215.29 118.43 213.225 116.108 214.009 113.546C214.829 110.868 216.318 113.469 216.422 114.998Z" fill="black"/>
<path fill-rule="evenodd" clip-rule="evenodd" d="M210.906 115.168C210.592 115.772 210.258 117.076 209.41 116.939C208.371 116.77 208.338 114.771 208.452 114.026C208.551 113.374 208.844 112.288 209.714 112.302C210.97 112.323 210.886 114.386 210.906 115.168Z" fill="black"/>
<path fill-rule="evenodd" clip-rule="evenodd" d="M233.489 115.827C232.646 117.718 231.487 116.089 231.858 114.746C232.408 112.754 233.441 114.519 233.489 115.827Z" fill="black"/>
<path fill-rule="evenodd" clip-rule="evenodd" d="M212.85 121.795C211.93 121.791 211.009 121.788 210.089 121.784C211.01 121.611 211.931 121.543 212.85 121.795Z" fill="black"/>
<path fill-rule="evenodd" clip-rule="evenodd" d="M231.139 120.406C230.341 120.411 229.543 120.416 228.745 120.421C229.542 120.182 230.34 120.177 231.139 120.406Z" fill="black"/>
<path fill-rule="evenodd" clip-rule="evenodd" d="M222.03 121.151C221.391 121.194 220.752 121.236 220.114 121.279C220.753 121.236 221.391 121.194 222.03 121.151Z" fill="black"/>
<path fill-rule="evenodd" clip-rule="evenodd" d="M206.351 115.83C206.345 115.371 206.338 114.913 206.333 114.455C206.569 114.911 206.553 115.369 206.351 115.83Z" fill="black"/>
<path fill-rule="evenodd" clip-rule="evenodd" d="M211.359 123.636C211.729 123.64 212.1 123.643 212.467 123.646C212.095 123.643 211.727 123.64 211.359 123.636Z" fill="black"/>
<path fill-rule="evenodd" clip-rule="evenodd" d="M205.137 123.308C205.512 123.308 205.888 123.308 206.26 123.308C205.883 123.308 205.51 123.308 205.137 123.308Z" fill="black"/>
<path fill-rule="evenodd" clip-rule="evenodd" d="M208.214 121.834C207.692 121.877 207.17 121.92 206.649 121.963C207.171 121.92 207.692 121.877 208.214 121.834Z" fill="black"/>
<path fill-rule="evenodd" clip-rule="evenodd" d="M215.268 121.789C214.753 121.79 214.238 121.791 213.723 121.792C214.238 121.575 214.753 121.569 215.268 121.789Z" fill="black"/>
<path fill-rule="evenodd" clip-rule="evenodd" d="M210.906 115.168C210.893 114.69 210.881 114.212 210.869 113.735C210.882 114.213 210.894 114.691 210.906 115.168Z" fill="black"/>
<path fill-rule="evenodd" clip-rule="evenodd" d="M203.652 114.09C203.649 114.556 203.646 115.022 203.643 115.487C203.645 115.02 203.649 114.555 203.652 114.09Z" fill="black"/>
<path fill-rule="evenodd" clip-rule="evenodd" d="M224.958 120.977C224.502 121.019 224.047 121.06 223.592 121.101C224.048 121.06 224.503 121.019 224.958 120.977Z" fill="black"/>
<path fill-rule="evenodd" clip-rule="evenodd" d="M233.488 115.827C233.474 115.42 233.459 115.012 233.444 114.606C233.459 115.013 233.474 115.42 233.488 115.827Z" fill="black"/>
<path fill-rule="evenodd" clip-rule="evenodd" d="M214.112 123.65C214.429 123.644 214.746 123.638 215.059 123.632C214.741 123.639 214.426 123.644 214.112 123.65Z" fill="black"/>
<path fill-rule="evenodd" clip-rule="evenodd" d="M227.637 114.998C227.609 114.705 227.581 114.412 227.553 114.121C227.581 114.414 227.609 114.706 227.637 114.998Z" fill="black"/>
<path fill-rule="evenodd" clip-rule="evenodd" d="M216.422 114.998C216.402 114.698 216.381 114.397 216.361 114.097C216.381 114.398 216.402 114.698 216.422 114.998Z" fill="black"/>
<path fill-rule="evenodd" clip-rule="evenodd" d="M52.9283 26.6732C51.6814 26.346 51.4476 24.5938 51.648 23.5175C51.8752 22.9989 52.1025 22.4804 52.3297 21.9618C52.2408 21.77 52.1521 21.5782 52.0634 21.3865C52.1774 20.3183 51.8859 19.8541 53.1135 20.2867C55.3938 21.0908 55.7583 26.5908 52.9283 26.6732Z" fill="black"/>
<path fill-rule="evenodd" clip-rule="evenodd" d="M71.3855 23.2854C72.4127 23.2045 74.2785 24.4008 73.256 25.5581C72.6225 26.2751 70.535 25.9359 69.6834 26.0857C68.5539 26.2842 67.3759 26.5558 67.987 24.8641C68.4668 23.5356 70.1804 23.2507 71.3855 23.2854Z" fill="black"/>
<path fill-rule="evenodd" clip-rule="evenodd" d="M70.3045 31.2428C69.2612 30.406 69.7269 26.595 71.3148 27.2806C72.9483 27.9864 71.1752 30.6928 70.3045 31.2428Z" fill="black"/>
<path fill-rule="evenodd" clip-rule="evenodd" d="M51.6481 23.5176C51.6481 23.9186 51.6479 24.3199 51.6471 24.7191C51.4295 24.3173 51.4363 23.9173 51.6481 23.5176Z" fill="black"/>
<path fill-rule="evenodd" clip-rule="evenodd" d="M52.9282 26.6733C53.1409 26.6673 53.3538 26.661 53.5638 26.6555C53.3501 26.6623 53.1393 26.6678 52.9282 26.6733Z" fill="black"/>
<path fill-rule="evenodd" clip-rule="evenodd" d="M181.76 136.428C181.662 138.162 179.801 136.88 179.933 135.721C180.173 133.616 181.363 135.696 181.76 136.428Z" fill="black"/>
<defs>
<linearGradient id="paint0_linear_45_1189" x1="134.767" y1="76.4763" x2="134.767" y2="126.875" gradientUnits="userSpaceOnUse">
<stop stop-color="#80EF21"/>
<stop offset="1" stop-color="#378805"/>
</linearGradient>
</defs>
</svg>
