<svg width="240" height="232" viewBox="0 0 240 232" fill="none" xmlns="http://www.w3.org/2000/svg">
<path fill-rule="evenodd" clip-rule="evenodd" d="M165.033 196C153.603 198.502 142.173 201.003 130.743 203.505C129.133 203.857 127.524 204.209 125.915 204.562C126.394 189.791 126.873 175.02 127.352 160.249C127.421 158.116 127.49 155.982 127.559 153.849C124.911 156.171 122.131 158.397 119.596 160.842C116.352 163.971 113.233 167.211 109.894 170.247C104.15 175.471 98.1161 180.537 91.4652 184.57C84.2382 188.952 75.9014 191.771 67.5098 192.745C64.4186 193.103 61.6202 193.016 58.558 192.696C55.8933 192.418 53.2289 192.14 50.5642 191.862C49.4911 191.75 48.4175 191.638 47.3441 191.526C47.0849 191.499 46.2411 191.56 46.0341 191.385C45.6586 191.068 45.4626 189.628 45.3147 189.171C44.6981 187.267 44.0853 185.362 43.4764 183.455C41.8216 178.274 40.1899 173.085 38.6144 167.879C37.2651 163.423 35.8465 158.947 34.8389 154.397C34.7209 153.863 34.4621 153.165 34.5059 152.614C34.5694 151.808 34.1885 151.978 35.2489 151.966C37.7418 151.939 40.3779 152.545 42.8733 152.723C45.443 152.905 48.0178 153.014 50.5938 153.04C64.2356 153.179 79.937 151.698 90.9881 142.853C94.6933 139.887 98.4153 136.459 101.286 132.646C105.335 127.27 107.542 120.112 108.079 113.478C108.684 106.024 107.429 98.3365 105.601 91.1209C105.23 89.6608 105.314 89.1143 105.632 87.5865C105.896 86.3182 106.159 85.0496 106.423 83.7813C106.497 83.4291 106.576 81.9493 106.866 81.7321C107.375 81.3528 109.828 81.7695 110.424 81.777L117.816 81.8696C122.576 81.929 127.336 81.9887 132.096 82.0484C134.568 82.0794 137.038 82.4662 139.494 82.7221C144.76 83.2699 150.027 83.8184 155.293 84.3662C156.348 84.4763 157.404 84.5863 158.459 84.6958C157.783 90.698 157.106 96.6999 156.429 102.702C155.925 107.178 157.684 111.615 158.621 115.99C160.733 125.846 162.79 135.846 163.573 145.912C164.31 155.389 164.302 164.968 164.543 174.468C164.724 181.645 164.889 188.822 165.033 196Z" fill="url(#paint0_linear_46_1431)"/>
<path fill-rule="evenodd" clip-rule="evenodd" d="M91.5435 14.8546C91.5435 14.3036 91.7076 13.9178 92.0164 13.4611C92.7297 14.0816 93.8469 17.1589 95.0357 15.1722C95.2719 14.7771 95.2829 13.3055 96.0936 13.7647C96.4746 13.9803 96.3705 15.0188 96.3434 15.3709C96.247 16.6241 95.6787 18.3725 94.0645 18.3011C92.4171 18.2284 91.4991 16.2255 91.5435 14.8546Z" fill="black"/>
<path fill-rule="evenodd" clip-rule="evenodd" d="M92.5378 12.1017C89.798 12.6078 90.8913 10.1394 92.8982 9.93458C93.6421 9.85859 94.9253 9.89846 94.749 10.9985C94.593 11.9715 93.2617 11.9677 92.5378 12.1017Z" fill="black"/>
<path fill-rule="evenodd" clip-rule="evenodd" d="M84.9466 20.2361C84.084 20.318 82.6625 19.1 84.095 18.9516C84.7564 18.8832 86.1457 20.1217 84.9466 20.2361Z" fill="black"/>
<path fill-rule="evenodd" clip-rule="evenodd" d="M235.378 34.6694C234.718 35.1753 232.74 33.5477 232.093 33.2601C229.575 32.1399 226.68 31.5202 223.974 31.0372C218.617 30.0814 213.126 29.543 207.687 29.3716C204.37 29.2666 201.229 29.3829 197.947 29.737C197.13 29.8251 191.603 30.7486 191.468 29.2315C191.23 26.5673 205.851 26.6936 207.243 26.6984C213.573 26.72 219.29 27.4234 225.438 28.8047C227.101 29.1782 237.329 33.1736 235.378 34.6694Z" fill="black"/>
<path fill-rule="evenodd" clip-rule="evenodd" d="M60.5925 78.6884C57.2635 79.6746 53.4651 79.54 50.3417 77.9511C49.805 77.6783 48.5009 77.0983 49.192 76.4165C49.9353 75.6834 52.0172 76.9272 52.8279 77.0863C56.7622 77.8594 61.7506 76.3274 64.5375 73.4541C65.921 72.0286 66.7016 70.2267 67.0311 68.286C67.2187 67.1791 67.315 66.0083 67.2474 64.8862C67.1761 63.6973 66.6907 62.4193 67.0156 61.2363C68.467 62.0982 68.4838 64.3675 68.5873 65.833C68.7175 67.6807 68.7062 69.4575 68.1882 71.2577C67.1216 74.9645 64.2584 77.6025 60.5925 78.6884Z" fill="black"/>
<path fill-rule="evenodd" clip-rule="evenodd" d="M1.11086 177.425C1.21658 177.708 1.31618 177.973 1.43222 178.284C1.88123 177.459 1.88123 177.459 1.11086 177.425ZM5.29504 198.993C6.96021 199.763 8.81555 197.693 9.70196 196.54C11.1795 194.618 11.8371 192.403 12.4195 190.089C13.0639 187.528 13.8085 184.998 14.4074 182.425C14.6736 181.278 14.9286 180.128 15.228 178.989C15.4759 178.046 16.3997 176.367 16.011 175.388C15.3534 173.733 12.124 173.278 12.3441 171.058C12.5462 169.019 16.0999 171.197 16.9531 171.629C18.9023 172.618 17.8885 171.371 16.947 170.647C16.2337 170.099 12.915 167.727 14.652 166.53C15.7795 165.753 18.2318 168.118 19.1663 168.554C20.1474 169.012 20.5049 168.892 21.3004 168.086C21.8664 167.512 22.7077 166.786 23.1451 166.128C24.2256 164.501 22.778 161.312 22.5556 159.448C22.5059 159.033 22.8176 156.76 22.5285 156.491C22.1478 156.137 20.5191 156.386 19.9205 156.296C17.7741 155.973 15.6564 155.729 13.5064 155.46C12.0862 155.283 7.86209 154.212 7.02596 155.687C6.3626 156.856 6.57502 159.102 6.5747 160.352C6.57373 162.985 6.56535 165.561 6.31683 168.202C5.77338 173.969 5.36563 179.734 4.84217 185.502C4.58785 188.301 4.0618 191.068 3.79814 193.868C3.63439 195.603 3.37588 198.105 5.29504 198.993ZM37.6301 156.399C39.2066 160.348 40.5111 164.416 41.8748 168.441C42.5056 170.302 43.0875 172.182 43.7276 174.039C44.3407 175.818 45.3267 177.421 45.8324 179.241C46.7872 182.677 47.5904 186.09 48.7212 189.468C48.8839 189.955 48.7885 191.032 49.0806 191.376C49.4396 191.799 51.0294 191.735 51.5925 191.806C53.8952 192.097 56.2215 192.32 58.5452 192.223C56.3711 189.478 53.9323 186.958 51.4326 184.503C49.2437 182.353 46.2872 179.912 45.9311 176.636C45.4569 172.284 49.9915 173.159 52.8129 173.423C56.7485 173.791 61.2096 175.388 65.1485 174.503C62.4183 170.806 58.2802 168.049 54.8532 165.039C53.5165 163.865 52.1105 162.575 51.4278 160.886C51.0803 160.025 50.9072 159.033 51.1432 158.119C51.4297 157.009 52.0657 156.807 52.9879 156.283C47.5198 156.283 41.9899 156.088 36.7814 154.207C36.5744 155.081 37.3371 155.665 37.6301 156.399ZM62.076 191.279C63.0311 192.579 64.7514 192.225 66.1674 192.143C68.2461 192.023 70.3193 191.77 72.3603 191.352C74.4203 190.931 76.4871 190.367 78.4527 189.611C78.8659 189.452 80.1524 189.089 80.3039 188.591C80.4412 188.14 79.6476 187.215 79.4745 186.871C78.9233 185.771 78.65 183.811 79.8951 183.027C80.9231 182.379 82.4412 183.028 83.4782 183.334C85.0141 183.788 86.8462 184.703 88.406 184.007C90.3961 183.118 92.3668 181.84 94.2379 180.721C90.858 177.645 87.5383 174.509 84.0722 171.528C80.8973 168.797 77.0728 165.655 75.0885 161.893C74.3411 160.476 73.8572 158.468 74.7739 156.993C75.5956 155.67 77.2527 155.623 78.6493 155.744C82.7987 156.105 86.8865 157.137 90.9682 157.907C92.3423 158.166 101.182 160.22 101.206 157.986C101.211 157.504 100.296 156.406 100.061 156.023C99.5303 155.154 98.9878 154.295 98.4141 153.454C97.0767 151.493 95.6233 149.616 94.1818 147.732C93.4547 146.782 92.5251 144.801 91.1329 145.013C90.4979 145.109 89.862 145.816 89.3498 146.183C88.4669 146.814 87.5518 147.398 86.6125 147.941C82.8148 150.135 78.6213 151.248 74.3959 152.283C73.4379 152.517 68.8621 152.99 68.4127 153.936C68.1884 154.408 68.7051 155.525 68.7186 156.036C68.7386 156.806 68.5691 157.605 68.1468 158.258C66.921 160.15 64.2402 160.05 62.2659 159.994C59.7581 159.923 57.1904 159.799 54.6943 160.106C57.1775 162.407 59.7546 164.604 62.3468 166.78C64.1738 168.313 66.2096 169.765 67.6453 171.695C68.8743 173.347 69.7888 176.159 68.219 177.939C66.539 179.844 62.7519 179 60.621 178.676C58.1368 178.297 55.6745 177.834 53.2119 177.34C52.3774 177.173 51.5158 176.979 50.6629 176.934C49.643 176.881 49.2691 176.823 49.9757 177.771C51.7314 180.126 54.372 181.819 56.2205 184.119C57.0912 185.202 58.1062 186.064 59.0216 187.104C60.162 188.399 61.0571 189.891 62.076 191.279ZM96.2496 178.409C97.4496 179.632 98.8041 177.894 99.7769 177.097C101.235 175.903 102.659 174.667 104.139 173.499C106.942 171.287 109.86 169.235 112.495 166.815C113.326 166.052 114.691 165.198 114.944 164.03C115.266 162.539 114.492 161.206 115.283 159.707C116.78 156.868 119.876 159.19 121.896 157.556C122.933 156.717 123.664 155.499 124.481 154.459C125.454 153.222 126.697 152.022 127.257 150.532C127.84 148.983 127.916 148.241 126.832 146.931C125.663 145.52 124.245 144.231 123.307 142.643C122.661 141.549 122.134 139.941 123.149 138.882C123.969 138.027 125.389 138.258 126.45 138.323C127.995 138.419 129.533 138.564 131.051 138.87C132.252 139.113 134.544 139.748 135.696 139.088C138.414 137.532 133.528 133.524 132.445 132.335C130.027 129.678 127.491 127.131 124.975 124.566C122.65 122.194 120.302 119.821 118.118 117.316C116.492 115.451 114.588 112.819 115.459 110.187C116.166 108.053 118.544 107.986 120.437 108.134C123.209 108.351 125.968 108.806 128.727 109.136C130.785 109.382 134.744 110.155 136.499 108.518C138.313 106.826 134.44 101.798 133.439 100.292C131.323 97.1089 128.885 94.1549 126.36 91.2933C125.134 89.9036 123.883 88.5349 122.632 87.1672C121.547 85.9789 120.551 84.4821 119.304 83.4617C117.939 82.3461 115.901 82.4771 114.229 82.309C112.47 82.1321 110.6 81.8712 108.832 81.8774C107.221 81.8832 107.62 83.4359 107.552 84.7823C107.535 85.1048 107.102 87.9655 107.59 88.0103C107.644 87.3734 107.697 86.7365 107.75 86.0993C109.125 86.6646 110.146 87.8812 111.212 88.8696C112.276 89.8561 113.72 90.8604 114.169 92.3111C115.436 96.4058 110.38 94.9532 108.261 94.5374C108.738 99.1887 109.926 103.709 110.58 108.329C110.855 110.265 110.743 112.017 110.529 113.942C110.407 115.039 110.421 116.147 110.288 117.243C110.182 118.113 109.778 119.107 109.939 119.982C110.235 121.582 112.252 123.262 113.148 124.616C114.338 126.413 115.387 128.359 115.937 130.457C116.931 134.242 115.238 136.964 111.284 137.328C109.5 137.492 107.526 137.216 105.759 136.964C104.24 136.747 102.3 135.619 100.915 136.64C100.348 137.057 99.9571 137.797 99.4597 138.307C98.7383 139.047 97.9277 139.707 97.1315 140.363C96.3805 140.981 94.3272 142.08 94.5293 143.027C94.6818 143.742 95.9195 144.762 96.3389 145.291C96.8888 145.984 97.4345 146.68 97.9654 147.388C99.3134 149.186 100.599 151.044 101.761 152.968C103.169 155.296 105.144 159.455 102.764 161.868C101.386 163.266 99.0964 163.019 97.3388 162.744C94.9426 162.369 92.5618 161.887 90.2085 161.305C87.8519 160.723 85.476 160.318 83.0917 159.875C81.0549 159.497 78.6861 158.774 76.6499 159.522C82.5992 166.459 89.8694 171.91 96.2496 178.409ZM130.956 146.325C131.721 145.429 132.505 144.434 133.182 143.466C133.805 142.574 133.754 142.185 132.703 141.907C132.048 141.734 131.322 141.903 130.654 141.825C129.959 141.744 129.265 141.52 128.585 141.366C127.82 141.194 126.962 140.932 126.173 140.934C125.284 140.936 125.197 140.855 125.643 141.656C126.256 142.753 127.442 143.713 128.287 144.627C128.819 145.203 130.091 147.338 130.956 146.325ZM129.973 158.903C130.376 159.79 133.275 159.14 133.742 158.53C134.761 157.196 132.153 154.09 131.467 152.967C130.432 153.654 130.074 154.562 130.012 155.76C129.969 156.591 129.63 158.148 129.973 158.903ZM128.881 202.957C130.614 203.129 132.884 202.128 134.471 201.578C136.669 200.817 138.954 200.274 141.222 199.768C145.776 198.75 150.484 198.608 155.051 197.631C152.149 193.849 148.639 190.59 145.689 186.847C144.62 185.491 143.047 183.546 143.544 181.685C144.03 179.86 145.912 180.263 147.31 180.684C149.185 181.248 150.996 182.034 152.829 182.718C153.696 183.041 157.567 184.903 158.283 183.696C158.766 182.881 156.018 179.845 155.617 179.321C154.12 177.36 152.495 175.503 150.858 173.66C147.804 170.221 144.337 166.703 141.974 162.735C140.203 159.761 139.611 155.066 144.392 155.254C146.367 155.332 148.379 155.945 150.305 156.348C152.085 156.72 154.715 157.544 156.53 157.084C158.443 156.6 156.244 153.741 155.642 152.798C154.37 150.806 152.877 148.944 151.476 147.041C149.968 144.994 148.361 142.991 146.952 140.875C146.076 139.559 144.654 137.262 145.45 135.598C146.365 133.688 149.505 134.869 151.042 135.158C153.955 135.707 156.812 136.622 159.804 136.622C159.774 135.118 158.236 133.795 157.35 132.728C156.021 131.126 154.654 129.575 153.2 128.085C152.179 127.036 151.061 125.328 149.866 124.52C148.643 123.694 147.92 126.306 147.439 127.278C143.935 134.36 140.104 141.304 135.378 147.658C134.427 148.937 133.03 149.97 133.828 151.603C134.659 153.301 135.754 154.787 136.073 156.705C136.309 158.12 136.185 160.088 135.097 161.164C134.042 162.207 132.492 161.97 131.189 162.378C129.806 162.811 130.196 164.04 130.184 165.269C130.162 167.42 130.136 169.57 130.149 171.721C130.16 173.633 130.187 175.544 130.21 177.456C130.234 179.477 130.725 180.91 131.276 182.814C131.563 183.805 131.662 184.829 131.345 185.826C131.072 186.681 130.624 186.845 130.099 187.451C129.075 188.63 129.402 190.871 129.277 192.37C129.187 193.444 127.688 202.839 128.881 202.957ZM133.145 225.941C133.58 226.489 135.144 226.314 135.754 226.354C136.913 226.43 138.074 226.431 139.234 226.494C141.707 226.628 144.149 226.973 146.63 227.016C148.669 227.052 150.782 227.151 152.741 227.291C153.707 227.36 154.792 226.941 155.731 227.137C156.657 227.331 157.011 227.602 158.013 227.521C160.509 227.321 163.063 227.573 165.564 227.635C167.878 227.692 170.211 227.516 172.528 227.485C175.134 227.451 177.747 227.546 180.353 227.573C183.142 227.602 185.989 227.436 188.743 227.967C188.488 226.793 188.505 225.41 187.559 224.533C186.589 223.634 184.982 223.43 183.735 223.283C181.918 223.07 180.117 223.021 178.304 222.944C177.171 222.896 176.081 222.511 174.956 222.383C173.341 222.198 171.603 222.305 169.976 222.278C169.418 222.27 169.047 222.063 168.535 221.985C167.934 221.893 167.346 222.047 166.691 221.887C165.332 221.554 163.946 221.206 162.627 220.763C161.822 220.492 161.856 220.262 161.196 220.891C160.782 221.285 160.529 222.031 160.18 222.494C159.603 223.26 158.572 224.176 157.683 223.254C156.741 222.277 157.75 221.182 157.541 220.169C157.38 219.386 155.895 218.7 155.154 218.995C154.128 219.403 153.824 221.525 152.726 221.765C151.345 222.067 151.718 219.974 151.905 219.194C152.395 217.155 152.22 217.088 150.593 215.73C149.353 214.695 149.007 214.291 147.469 215.064C145.919 215.844 144.226 216.183 142.499 216.369C140.458 216.59 138.554 216.359 136.558 215.951C135.618 215.758 133.786 215.036 133.172 216.024C132.48 217.138 133.192 219.867 133.217 221.156C133.236 222.117 133.295 223.105 133.203 224.064C133.156 224.559 132.793 225.498 133.145 225.941ZM158.177 196.843C159.611 196.719 161.017 196.338 162.447 196.164C162.968 196.101 164.088 196.12 164.519 195.751C165.046 195.299 164.799 195.343 164.692 194.686C164.18 191.562 163.984 188.536 164.06 185.362C164.116 182.985 164.579 179.289 163.166 177.223C161.5 174.788 158.968 172.986 157.279 170.543C156.365 169.222 155.09 165.675 157.983 165.77C159.134 165.808 160.364 166.539 161.481 166.81C163.062 167.193 163.159 166.808 163.019 165.372C162.691 162.003 162.789 158.62 162.445 155.249C162.092 151.784 161.714 148.317 161.325 144.855C161.136 143.173 161.05 141.392 160.724 139.735C160.407 138.124 158.845 138.991 157.479 138.926C153.86 138.752 150.342 136.529 146.705 136.877C149.737 142.575 154.908 146.904 157.85 152.677C158.867 154.672 159.814 157.793 157.307 159.126C154.512 160.61 150.248 158.729 147.373 158.251C146.366 158.084 142.37 156.914 142.184 158.473C142.084 159.312 143.711 161.275 144.117 161.881C145.044 163.264 146.111 164.546 147.113 165.872C149.115 168.522 151.497 170.827 153.573 173.42C155.384 175.682 157.606 177.898 159.066 180.407C160.436 182.762 160.699 187.006 156.847 186.542C152.904 186.067 149.474 182.986 145.455 182.896C147.509 185.607 149.854 188.076 152.134 190.594C153.231 191.805 154.308 193.033 155.348 194.295C156.014 195.102 156.929 196.952 158.177 196.843ZM163.558 172.267C163.471 171.139 163.744 170.509 162.721 169.891C162.062 169.493 160.506 168.874 159.784 169.148C160.056 169.466 163.178 173.203 163.511 172.902C163.594 172.699 163.61 172.487 163.558 172.267ZM158.117 120.397C157.929 118.228 157.493 116.083 157.399 113.906C157.336 112.434 157.545 110.475 156.55 109.248C155.346 111.505 154.536 113.946 153.333 116.205C152.818 117.171 152.243 118.104 151.711 119.06C151.347 119.714 150.28 121.117 150.364 121.896C150.507 123.227 153.148 125.134 154.003 126.084C155.825 128.108 157.609 130.168 159.47 132.156C159.219 128.215 158.457 124.329 158.117 120.397ZM158.169 85.1512C157.666 84.4437 154.158 84.7781 153.401 84.7106C151.019 84.4998 148.43 84.3116 146.124 83.6709C149.785 88.2076 153.075 93.1194 155.226 98.5664C156.041 96.341 156.579 94.0239 157.077 91.7097C157.331 90.5324 157.548 89.3503 157.737 88.1608C157.823 87.623 158.494 85.6096 158.169 85.1512ZM146.99 118.352C147.97 118.842 150.944 111.511 151.076 110.698C149.666 111.021 144.051 111.284 143.721 113.066C143.567 113.899 144.527 114.904 144.947 115.506C145.46 116.243 146.179 117.947 146.99 118.352ZM138.08 110.889C136.003 113.495 132.128 112.969 129.229 112.598C127.266 112.347 125.321 112.009 123.363 111.72C121.432 111.435 119.089 110.907 117.216 111.704C120.254 115.981 124.164 119.518 127.856 123.206C129.749 125.097 131.577 127.051 133.397 129.013C135.182 130.937 136.606 133.359 138.499 135.142C140.106 132.202 141.626 129.218 143.176 126.248C143.826 125 144.663 123.877 145.331 122.643C146.067 121.285 146.18 120.66 145.241 119.429C143.844 117.595 141.879 115.113 142.16 112.651C142.488 109.776 145.898 109.461 148.13 108.841C149.252 108.529 150.54 108.293 151.566 107.726C152.868 107.005 152.927 105.814 153.358 104.522C153.88 102.958 154.358 101.943 153.808 100.298C153.349 98.9295 152.663 97.5708 152.029 96.2777C150.697 93.559 149.031 91.056 147.265 88.6049C146.104 86.9941 144.734 83.78 142.658 83.3497C141.185 83.0446 139.325 83.1699 137.814 83.0863C136.052 82.9891 134.288 82.9339 132.525 82.8577C128.872 82.6992 124.959 82.3532 121.323 82.8358C125.605 87.4725 129.933 91.9934 133.742 97.0431C136.195 100.295 141.427 106.688 138.08 110.889ZM154.466 75.8125C152.48 72.1241 150.636 68.4771 147.948 65.2565C145.622 62.471 143.513 59.5648 141.1 56.8445C136.038 51.1379 129.467 46.9208 123.342 42.4868C121.956 41.4835 120.182 40.9367 118.662 40.0615C116.78 38.9792 114.764 38.0756 112.727 37.3274C109.033 35.9703 104.791 35.2779 100.857 35.5532C96.5088 35.8577 93.2284 37.3961 90.5292 40.793C87.8825 44.1224 87.4725 47.7979 87.401 51.9824C87.3671 53.9709 87.3423 55.971 87.3616 57.9598C87.381 59.9279 87.6363 61.1723 88.8395 62.6885C89.8304 63.9362 91.9178 64.5663 93.3419 65.1432C95.2794 65.9276 97.0928 66.8024 98.9005 67.8579C99.6824 68.3144 101.539 70.033 102.504 69.8506C103.925 69.5817 104.273 67.0551 104.415 65.9344C104.944 61.7405 104.887 57.4517 104.631 53.2375C104.5 51.0795 103.498 47.8369 104.065 45.6532C104.301 44.7461 104.839 44.4242 105.504 45.2255C106.327 46.2161 106.529 48.5419 106.741 49.737C107.49 53.946 107.44 58.1774 107.465 62.4335C107.474 64.1247 108.417 65.0018 109.035 66.5083C109.825 68.4351 110.472 70.4455 110.861 72.4925C111.087 73.6807 111.247 74.8912 111.23 76.1034C111.221 76.769 110.893 77.8278 111.149 78.4602C111.644 79.6871 114.72 79.0012 115.751 78.9783C120.346 78.8756 124.928 78.6306 129.531 78.5712C138.848 78.4514 148.232 79.8376 157.356 81.5981C156.411 79.6607 155.488 77.7112 154.466 75.8125ZM150.461 56.1221C151.191 56.2415 153.644 57.5844 154.068 56.7331C154.429 56.0055 152.639 53.3998 152.372 52.7058C151.751 51.0944 151.601 49.2951 151.235 47.6129C151.005 46.5528 150.983 44.4575 150.41 43.513C149.77 42.4571 148.278 42.9874 147.219 43.0191C145.412 43.073 143.587 43.072 141.78 43.0656C139.941 43.0591 138.104 43.011 136.265 43.0165C134.386 43.0223 132.529 42.7098 130.664 42.7098C130.874 43.3864 131.748 43.7167 132.297 44.0349C133.143 44.5256 133.855 45.1089 134.597 45.7494C136.335 47.2498 138.068 48.449 139.526 50.2389C140.843 51.8572 142.682 53.5874 144.317 54.8883C145.192 55.5846 145.791 55.5287 146.851 55.5197C148.12 55.5087 149.223 55.9193 150.461 56.1221ZM154.963 52.5166C155.419 53.9176 155.462 54.3292 156.943 54.2298C158.845 54.1013 160.753 53.9819 162.659 53.8434C167.007 53.5283 171.359 52.8775 175.708 52.658C179.416 52.4708 183.42 52.0224 187.104 52.4091C188.824 52.5896 190.657 52.2423 192.41 52.311C194.527 52.3943 196.664 52.3856 198.69 53.0383C200.378 53.5829 201.788 53.8769 202.994 55.2853C204.21 56.7037 205.039 58.4914 205.847 60.16C207.413 63.3958 208.64 67.62 211.395 70.0705C212.091 70.6896 213.279 71.7403 214.292 71.6238C215.958 71.4317 215.447 69.2218 215.3 68.1007C214.807 64.3232 213.327 61.0584 212.221 57.4504C211.891 56.3719 211.237 53.5232 212.947 53.1261C214.179 52.8404 216.113 55.5533 216.82 56.2818C218.378 57.8862 219.902 59.4431 221.644 60.8557C223.082 62.022 224.527 63.3103 226.514 63.0601C225.563 60.4912 224.514 58.004 222.956 55.7376C221.619 53.7917 219.366 52.0408 218.53 49.8028C217.901 48.1175 218.458 45.8181 220.415 47.3011C222.115 48.5884 223.587 50.164 225.324 51.4285C227.605 53.0874 230.193 54.4625 232.896 55.2828C233.79 55.5542 235.377 56.0798 236.234 55.4322C237.512 54.4667 236.208 52.4521 235.491 51.5644C228.761 43.2408 217.57 40.2559 207.359 39.6283C204.698 39.4647 201.93 39.7274 199.257 39.7652C196.722 39.8004 194.369 40.1116 191.863 40.4831C186.661 41.2537 181.449 41.8805 176.27 42.6504C174.883 42.8567 173.239 43.2647 171.858 43.2111C171.289 43.1892 170.994 43.0365 170.427 43.1886C169.943 43.3186 169.595 43.5782 169.055 43.6657C165.986 44.1612 162.863 44.3545 159.753 44.3942C158.257 44.4133 156.746 44.3849 155.261 44.1886C154.387 44.073 153.492 43.7089 153.245 44.7493C153.059 45.5337 153.679 47.0199 153.892 47.7753C154.327 49.3199 154.476 51.0208 154.963 52.5166ZM99.3279 25.6109C99.851 25.6309 100.713 25.7093 100.883 25.0547C101.203 23.8211 99.5571 24.574 99.2521 23.7974C98.9124 22.9328 100.071 22.709 100.582 22.5694C101.624 22.2843 101.357 22.3452 101.385 21.2614C101.411 20.2616 101.733 19.351 102.138 18.4453C102.701 17.187 102.73 17.2506 101.468 17.1061C99.3433 16.8631 98.8798 14.9836 98.094 13.2641C97.6092 12.2031 97.0719 11.168 96.7702 10.0345C96.5868 9.34678 96.6122 8.2538 95.9415 7.8663C95.0354 7.34284 92.9257 7.88409 91.971 8.00985C90.3758 8.2199 88.698 8.45823 87.1718 8.99454C85.8634 9.45444 85.3654 10.5211 84.1857 10.7101C83.4231 10.8319 78.8337 10.5438 79.4365 11.9525C79.812 12.8302 81.5842 12.3288 82.2372 12.3025C83.0714 12.2692 84.088 12.1448 84.9148 12.3081C85.7413 12.4717 85.8186 12.7815 86.1413 13.6055C85.367 13.567 82.4706 13.1334 81.8378 13.7039C81.2763 14.21 81.6909 14.7647 82.2556 14.9507C83.3573 15.3138 84.8465 14.6093 86.003 14.9122C86.8259 15.1278 86.7689 15.1571 87.108 15.9851C87.2846 16.417 87.4861 16.8588 87.5608 17.3234C87.986 19.9472 85.584 17.9103 84.5851 17.3293C82.7581 16.2662 80.7777 16.4648 81.1323 19.0188C81.2496 19.8639 81.7044 20.6033 82.2885 21.2127C83.1117 22.0716 83.3251 22.2336 83.3673 23.5313C83.4037 24.6479 83.2841 25.8426 83.6787 26.915C84.1138 28.0958 85.0405 29.1023 85.7642 30.1104C86.6335 31.3213 87.5328 32.5173 88.3715 33.7497C88.7328 34.2808 89.2486 35.6175 89.9445 35.7947C90.6001 35.961 91.6161 34.9073 92.1589 34.6058C93.4746 33.875 94.9197 33.3992 96.2722 32.7452C95.1389 31.7358 94.13 30.5908 93.0202 29.5768C92.1534 28.785 91.7047 28.6342 91.9906 27.2972C92.6321 24.298 97.1363 25.5289 99.3279 25.6109ZM82.2875 88.635C78.7057 92.1093 73.3802 94.2811 68.5355 95.1553C63.4604 96.0714 57.6733 96.75 52.7294 94.9787C47.6604 93.1623 42.9205 90.5511 38.629 87.3018C38.1013 86.9021 32.1901 81.1207 31.714 81.5765C33.4701 84.2106 35.3128 86.7795 37.1743 89.339C38.0887 90.596 41.2511 94.9235 39.4329 96.4891C38.2283 97.526 36.1799 95.8555 35.191 95.1853C32.8106 93.5726 30.1587 92.7042 27.2652 92.7042C28.6022 95.1624 30.6342 97.3391 31.7214 99.9357C32.2349 101.163 31.9735 101.074 30.8131 100.74C29.361 100.323 27.7142 99.8405 26.1989 99.772C25.4943 99.7401 24.0634 100.051 23.9442 100.972C23.8304 101.854 25.6993 103.518 26.2208 104.149C28.1326 106.465 30.0811 108.662 32.4444 110.529C36.9812 114.113 42.3667 116.423 47.8483 118.139C53.4482 119.892 59.4332 120.42 65.1581 119.009C67.9943 118.31 70.5962 117.362 73.1368 115.946C74.2869 115.305 75.4966 115.015 76.6029 114.262C77.752 113.48 78.9165 112.699 80.0895 111.954C82.5054 110.421 84.0026 108.878 85.6884 106.574C86.3663 105.647 87.2968 104.96 87.9428 104.047C88.6548 103.042 89.3872 102.017 90.0512 100.959C93.1124 96.0795 96.1116 90.8339 97.8961 85.3323C98.8163 82.4959 99.4413 79.578 100.213 76.6999C100.479 75.7095 101.459 73.805 101.255 72.7991C101.057 71.8288 99.5245 71.4353 98.7657 71.0237C96.5503 69.8229 94.3275 68.757 92.1657 67.4803C89.1796 65.7161 89.7085 69.3335 89.5148 71.422C88.9401 77.6312 86.8572 84.2022 82.2875 88.635ZM107.546 91.0086C108.177 91.5496 109.771 91.8853 110.577 91.6383C109.782 90.4527 108.558 89.6747 107.527 88.7205C107.415 89.3764 106.917 90.4685 107.546 91.0086ZM103.701 133.198C105.151 133.303 106.665 133.74 108.103 133.751C109.386 133.761 111.009 133.866 112.255 133.59C115.693 132.829 113.66 129.713 112.464 127.679C111.802 126.554 110.965 125.548 110.275 124.442C110.109 124.176 109.646 123.089 109.277 123.052C108.734 122.998 108.565 123.89 108.304 124.436C107.595 125.915 106.94 127.442 106.136 128.872C105.328 130.31 104.199 131.6 103.701 133.198ZM66.5061 155.079C66.209 153.424 61.3782 155.104 60.2851 155.302C59.9715 155.358 56.1867 155.82 56.2209 156.15C57.4734 156.243 66.8759 157.137 66.5061 155.079ZM0.813343 192.005C0.0732693 192.328 0.0993784 189.968 0.0652112 189.655C-0.00376773 189.025 -0.0904718 187.889 0.229603 187.335C0.464583 186.929 0.533562 187.135 0.659594 187.028C1.69299 186.15 0.445243 185.775 0.212842 185.076C0.141284 184.861 0.134512 184.268 0.241526 184.089C0.546451 183.574 0.630905 183.959 0.993528 183.743C1.23657 183.599 1.72973 183.956 1.58694 183.297C1.46929 182.753 1.05413 183.087 0.846222 182.917C0.0555426 182.269 0.136126 181.42 0.262803 180.385C0.383032 179.403 0.499071 178.351 0.78788 177.421C0.93583 176.944 1.13793 177.159 1.12181 176.595C1.11343 176.301 0.667004 176.01 0.652177 175.64C0.634449 175.18 1.06025 174.442 1.0841 173.957C1.11569 173.321 1.12149 172.768 1.05058 172.166C1.00707 171.797 0.909722 171.663 0.889415 171.214C0.870398 170.792 0.962909 170.297 0.971611 169.856C0.996753 168.605 1.1634 167.348 1.38258 166.152C1.51152 165.965 1.61272 165.763 1.68718 165.547C1.63593 165.323 1.55019 165.113 1.43029 164.917C1.39709 164.345 1.40805 163.787 1.41482 163.206C1.42771 162.131 1.22271 161.11 1.15985 160.049C1.14148 159.734 1.0177 159.208 1.23625 158.917C1.40289 158.695 1.98534 158.75 2.04916 158.537C2.23321 157.926 1.68235 158.29 1.56309 157.981C1.46735 157.733 1.51603 157.407 1.50024 157.158C1.45608 156.484 2.42468 151.903 3.26371 152.498C2.92945 152.261 3.58539 150.684 3.79846 150.417C4.58946 149.424 5.06167 150.549 5.70344 151.247C6.60113 152.224 7.38279 151.595 8.54898 151.375C9.99303 151.102 11.5795 151.198 13.0432 151.23C14.5437 151.262 16.0654 151.347 17.5598 151.479C19.1688 151.622 20.7273 152.109 22.3525 152.084C24.7613 152.048 27.2017 152.105 29.6082 152.018C30.0901 152.001 31.2556 152.051 31.4574 151.438C31.5335 151.207 31.099 150.723 31.0335 150.469C30.9072 149.981 30.8985 149.341 31.1132 148.863C31.762 147.422 33.1123 148.598 34.0635 149.122C35.4965 149.911 36.9815 150.583 38.5645 151.009C44.8774 152.71 52.3248 152.615 58.7711 151.812C65.3171 150.997 71.7882 149.023 78.1704 147.406C83.9978 145.93 89.3762 142.656 93.8492 138.651C98.4089 134.568 102.007 128.906 104.26 123.221C106.769 116.888 104.944 110.513 104.88 104.035C104.848 100.805 104.131 97.6525 103.934 94.4325C103.743 91.3094 104.01 88.379 104.945 85.322C105.184 84.5434 105.519 83.7613 105.693 82.9646C105.854 82.227 105.569 81.6349 105.664 80.9393C105.867 79.4499 107.51 79.6009 108.229 78.4937C108.88 77.4914 108.209 75.9313 107.979 74.8564C107.578 72.9896 107.08 71.1457 106.622 69.2928C106.149 70.3962 105.707 71.4966 105.421 72.6658C105.347 72.9654 105.341 73.4941 105.136 73.7601C104.988 73.9525 104.615 73.9277 104.498 74.1052C104.103 74.7037 104.149 75.3038 104.08 76.0733C103.947 77.5663 103.706 79.0428 103.461 80.5203C102.637 85.4834 102.01 90.3749 100.063 95.0601C96.4749 103.694 91.6283 111.728 84.461 117.852C81.2128 120.628 77.0822 122.353 73.1507 123.816C68.4614 125.56 64.0007 126.505 58.9665 126.052C54.2156 125.625 49.4674 124.148 45.1156 122.232C40.8292 120.345 36.8049 118.684 33.1451 115.644C29.2346 112.395 25.3289 108.474 22.6391 104.126C21.6582 102.54 19.9118 99.2694 20.3399 97.2836C20.8888 94.7369 24.7945 96.4162 26.205 96.9436C25.0182 94.9981 21.841 91.5334 23.4207 89.1069C25.7264 85.5654 31.7614 89.1518 34.2327 90.4643C32.9592 87.8699 31.0126 85.69 29.633 83.1586C28.9497 81.9042 27.0602 76.8032 29.8361 76.5272C30.6764 76.4436 31.5686 77.4046 32.1623 77.8862C33.3147 78.8217 34.458 79.7678 35.601 80.715C38.0991 82.7851 40.7357 84.5457 43.6129 86.0448C49.3707 89.0446 54.9402 90.6376 61.48 89.9995C67.0518 89.4565 73.1961 87.7602 77.5292 84.0811C80.1311 81.8722 82.1998 79.4286 83.5362 76.2538C85.0122 72.7481 85.953 68.8971 86.9855 65.2397C85.3851 64.8268 84.2634 65.066 84.5722 63.1592C84.9425 60.8737 84.861 58.5608 84.8745 56.2408C84.9029 51.4317 84.9915 46.5696 86.4936 41.9545C86.7608 41.1333 86.9964 40.2869 87.457 39.5473C88.025 38.6354 88.5523 38.4998 87.821 37.5056C86.4137 35.5913 84.9516 33.9554 83.9075 31.7558C83.3644 30.6118 82.8603 29.4913 82.1911 28.4218C81.0936 26.6684 79.6586 25.382 78.2503 23.8629C76.6335 22.1197 75.367 20.4753 74.5361 18.2359C74.1477 17.1907 73.6184 16.1507 73.4176 15.0465C73.1784 13.73 73.4269 12.3832 73.5404 11.0659C73.9156 6.69626 75.3809 3.17004 79.6708 1.46276C83.1568 0.0751159 87.1644 -0.522428 90.8193 0.550479C95.241 1.84893 97.3368 5.73463 99.4426 9.49495C100.037 10.5553 100.402 11.6773 100.941 12.7535C101.493 13.8567 102.066 13.8584 103.083 14.3061C105.099 15.193 104.928 17.7513 104.053 19.433C102.941 21.5699 103.166 24.0456 102.207 26.2765C101.226 28.5606 99.7024 29.1972 97.3794 29.7092C98.2651 30.4135 99.0726 31.3348 100.201 31.636C101.572 32.0014 103.232 31.6528 104.65 31.6728C107.595 31.7145 110.573 32.1141 113.372 33.057C116.12 33.9825 118.583 35.4642 121.138 36.7899C122.306 37.3958 123.395 38.2603 124.729 38.4362C126.024 38.607 127.328 38.2874 128.63 38.4549C131.486 38.8226 134.616 38.3591 137.528 38.2958C140.664 38.227 143.811 38.2709 146.941 38.0411C148.293 37.942 149.628 37.7996 150.985 37.9178C152.218 38.0246 152.953 37.7341 154.019 38.5792C154.728 39.1409 155.293 40.5157 156.128 40.703C157.018 40.9028 158.772 40.3437 159.651 40.211C162.606 39.7646 165.585 39.1745 168.523 38.6302C169.899 38.3749 171.197 37.91 172.585 37.6702C174.018 37.4223 175.505 37.3416 176.921 37.0227C179.211 36.5065 181.685 36.3141 184.073 35.9842C186.869 35.5981 189.746 34.7837 192.565 34.6807C204.364 34.2494 217.59 33.5477 228.052 40.0996C230.508 41.6381 233.033 43.6027 234.925 45.8033C236.664 47.825 238.799 50.4998 239.242 53.1936C239.638 55.5981 239.349 59.8107 236.139 59.8401C233.008 59.8689 229.791 57.9969 227.097 56.6105C228.247 59.373 231.744 65.29 228.709 67.9725C225.576 70.7409 219.809 64.7338 217.741 62.8054C218.149 65.7571 221.069 76.4839 215.545 76.6502C210.153 76.8122 207.025 70.156 205.104 66.2045C204.09 64.1183 203.333 61.6672 201.687 59.9696C200.031 58.2626 197.736 58.3191 195.496 58.1008C190.05 57.5705 184.634 57.543 179.156 57.4117C172.223 57.2457 165.415 58.3898 158.473 57.7435C158.561 59.0841 158.052 61.5239 156.696 62.0371C154.698 62.7935 152.248 61.7063 150.202 61.7063C150.339 62.5259 151.505 63.3894 151.996 64.0082C152.875 65.117 153.632 66.3065 154.34 67.5313C155.723 69.9233 157.194 72.3194 158.175 74.9122C158.669 76.2167 159.091 77.5618 159.447 78.9101C159.651 79.6855 159.647 80.8444 160.062 81.5297C160.577 82.3819 161.368 81.89 162.02 82.5582C162.96 83.5217 161.979 84.0285 161.683 84.8778C161.361 85.7969 161.765 87.3534 161.642 88.3635C161.459 89.88 161.265 91.4072 161.013 92.9141C160.554 95.6682 159.579 98.2158 158.927 100.904C158.308 103.455 159.983 106.152 160.536 108.619C161.178 111.483 161.55 114.38 162.209 117.238C162.905 120.256 163.228 123.364 163.708 126.42C164.176 129.407 164.851 132.357 165.309 135.346C166.182 141.041 166.736 146.841 167.424 152.559C167.785 155.557 168.062 158.594 168.089 161.614C168.113 164.443 168.512 167.205 168.57 170.029C168.632 173.021 168.667 176.016 168.796 179.006C168.923 181.964 168.557 184.909 168.423 187.863C168.359 189.27 168.312 190.68 168.333 192.089C168.35 193.279 168.676 194.671 168.382 195.835C167.8 198.136 164.566 199.519 162.536 200.188C160.054 201.007 157.435 201.572 154.894 202.177C153.656 202.472 152.403 202.723 151.144 202.908C150.655 202.98 150.087 202.951 149.631 203.159C148.942 203.473 149.078 203.315 149.041 204.099C148.982 205.366 149.353 206.754 149.546 207.996C149.723 209.139 149.497 211.019 149.938 212.044C150.441 213.21 153.98 214.164 154.845 213.374C155.456 212.816 155.631 211.762 156.35 211.292C157.387 210.616 157.863 211.564 157.857 212.582C157.854 213.349 157.274 214.275 157.971 214.836C158.575 215.322 159.848 215.067 160.432 214.667C161.404 214 163.421 209.873 163.914 213.384C164.03 214.211 163.674 215.174 164.374 215.802C165.031 216.39 166.613 216.364 167.44 216.469C168.761 216.636 169.918 216.692 171.251 216.664C172.74 216.632 174.146 216.982 175.609 217.047C177.889 217.15 180.177 217.459 182.509 217.504C184.889 217.55 187.483 218.173 189.313 219.79C191.415 221.647 190.983 223.943 190.582 226.43C190.317 228.075 192.412 229.851 190.297 231.29C189.449 231.867 188.04 231.745 187.064 231.754C185.397 231.769 183.748 231.575 182.079 231.668C169.923 232.346 157.719 231.84 145.565 231.439C142.725 231.345 139.776 231.475 136.961 231.132C135.707 230.979 134.462 230.76 133.205 230.626C132.129 230.511 130.845 230.7 129.818 230.35C127.276 229.484 129.997 226.849 130.2 225.343C130.593 222.422 130.426 219.326 130.445 216.382C130.465 213.252 130.445 210.122 130.445 206.992C129.093 207.086 125.299 208.089 124.239 206.926C123.363 205.965 124.854 203.959 124.927 202.805C125.225 198.102 125.124 193.394 125.479 188.686C125.844 183.832 125.799 179.02 125.951 174.165C126.114 168.979 126.481 163.811 126.481 158.617C122.698 162.628 119.085 167.033 114.878 170.609C113.076 172.14 111.113 173.465 109.232 174.893C107.111 176.502 105.137 178.292 103.029 179.916C99.1077 182.938 94.4445 184.705 90.3013 187.391C86.1136 190.107 81.6444 192.344 76.823 193.688C71.5526 195.158 65.9637 195.646 60.5098 195.364C57.8931 195.229 55.2896 194.892 52.7126 194.422C51.6383 194.225 50.5749 193.969 49.5002 193.776C47.9801 193.504 47.2394 193.758 45.8163 194.037C43.9465 194.404 43.4807 191.668 42.9263 190.353C41.9039 187.927 41.4613 185.276 40.5565 182.796C38.9745 178.457 37.5166 174.167 36.1167 169.755C35.7989 168.754 35.5874 167.017 34.3955 166.877C33.5909 166.782 32.2052 167.68 31.4165 167.928C30.045 168.36 28.745 168.554 27.3164 168.589C26.1125 168.619 25.9687 169.071 25.2161 169.929C24.526 170.715 23.2802 171.166 23.5145 172.308C23.6531 172.985 24.3703 173.507 24.5044 174.271C24.9853 177.012 22.2374 174.642 21.2714 174.043C20.6864 175.335 25.1065 176.77 23.4958 178.6C22.7071 179.496 21.0625 178.135 20.2777 177.787C18.4471 176.975 18.169 179.182 17.6813 180.612C16.7868 183.238 16.1879 185.993 15.5023 188.68C14.8419 191.268 14.3049 193.913 13.2628 196.384C12.3341 198.587 10.7167 200.025 9.56175 202.014C8.99315 202.992 8.36558 203.697 7.13685 203.744C6.30555 203.775 4.76803 203.448 3.98283 203.13C3.24147 202.83 2.43757 201.918 1.91926 201.345C1.1995 200.549 1.34165 199.78 0.758871 198.807C0.784013 199.296 0.892959 199.751 0.919068 200.228C-0.144626 199.389 0.915847 198.07 0.72277 197.007C0.66185 196.67 0.315344 196.388 0.295682 196.035C0.286979 195.89 0.595769 195.557 0.61672 195.355C0.641217 195.117 0.66056 194.423 0.592871 194.245C0.543876 194.118 0.134516 193.47 0.143542 193.587C0.137417 193.501 -0.00731129 193.366 0.0703706 193.082C0.187699 192.654 0.867494 192.578 0.813343 192.005Z" fill="black"/>
<defs>
<linearGradient id="paint0_linear_46_1431" x1="99.7615" y1="88.3373" x2="99.7615" y2="194.6" gradientUnits="userSpaceOnUse">
<stop stop-color="#80EF21"/>
<stop offset="1" stop-color="#378805"/>
</linearGradient>
</defs>
</svg>
